<?xml version="1.0" encoding="UTF-8" standalone="no"?>
<!DOCTYPE svg PUBLIC "-//W3C//DTD SVG 1.1//EN" "http://www.w3.org/Graphics/SVG/1.1/DTD/svg11.dtd">
<svg xmlns:xl="http://www.w3.org/1999/xlink" version="1.1" xmlns="http://www.w3.org/2000/svg" xmlns:dc="http://purl.org/dc/elements/1.1/" viewBox="-206 541 452 319" width="452" height="319">
  <defs>
    <linearGradient x1="0" x2="1" id="Gradient" gradientUnits="userSpaceOnUse">
      <stop offset="0" stop-color="#FFFFFF"/>
      <stop offset=".5622279" stop-color="#FFFFFF"/>
      <stop offset="1" stop-color="#FFFFFF"/>
    </linearGradient>
    <linearGradient id="Obj_Gradient" xl:href="#Gradient" gradientTransform="translate(-22.243304 713.6501) rotate(3) scale(275.319)"/>
    <linearGradient x1="0" x2="1" id="Gradient_2" gradientUnits="userSpaceOnUse">
      <stop offset="0" stop-color="#FFFFFF"/>
      <stop offset=".44885606" stop-color="#FFFFFF"/>
      <stop offset="1" stop-color="#FFFFFF"/>
    </linearGradient>
    <linearGradient id="Obj_Gradient_2" xl:href="#Gradient_2" gradientTransform="translate(62.03172 673.3501) rotate(177) scale(275.319)"/>
  </defs>
  <g id="Canvas_1" stroke="none" fill="none" stroke-dasharray="none" fill-opacity="1" stroke-opacity="1">
    <title>Canvas 1</title>
    <g id="Canvas_1_Layer_1">
      <title>Layer 1</title>
      <g id="Graphic_92">
        <path d="M 245.12885 591.7663 C 245.56326 590.8378 245.78842 589.82515 245.78842 588.8 C 245.78842 584.934 242.6544 581.8 238.78842 581.8 L 205.84816 581.8 L 184.30978 627.2608 C 179.37687 640.66596 169.18054 645.48145 159.64525 645.48145 L 70.85293 645.48145 C 61.31764 645.48145 48.24378 640.0152 43.721946 627.2608 L 23.609947 581.8 L -8.331669 581.8 C -9.356805 581.8 -10.36943 582.0252 -11.297974 582.4596 C -14.799696 584.0978 -16.310343 588.2646 -14.672098 591.7663 L 108.88795 855.8739 C 109.58277 857.3591 110.7769 858.5532 112.26207 859.248 C 115.76379 860.8863 119.93056 859.3756 121.5688 855.8739 L 245.12885 591.7663 Z M 162.57849 690.3608 L 121.58367 779.1497 C 119.9631 782.6596 115.804 784.1913 112.29406 782.5707 C 110.78339 781.8732 109.57057 780.6604 108.87308 779.1497 L 67.87826 690.3608 C 66.257686 686.8508 67.78931 682.6917 71.29925 681.0712 C 72.219165 680.6464 73.22032 680.4265 74.23356 680.4265 L 156.2232 680.4265 C 160.08918 680.4265 163.2232 683.5605 163.2232 687.4265 C 163.2232 688.4397 163.00322 689.44086 162.57849 690.3608 Z" fill="url(#Obj_Gradient)"/>
      </g>
      <g id="Graphic_90">
        <path d="M -205.34043 809.6429 L -205.34043 809.6429 L -205.34043 809.6429 C -205.77484 810.5715 -206 811.5841 -206 812.60925 C -206 816.4752 -202.866 819.60925 -199 819.60925 L 48.12009 819.60925 C 49.145224 819.60925 50.15785 819.3841 51.08639 818.9497 C 54.588115 817.3114 56.09876 813.1447 54.460516 809.6429 L -69.09953 545.53536 C -69.79435 544.0502 -70.98848 542.85606 -72.47365 542.16124 C -75.97537 540.523 -80.14214 542.03364 -81.78038 545.53536 Z M -149.98552 773.2963 L -81.78038 627.5089 C -80.14214 624.0072 -75.97537 622.4965 -72.47365 624.1348 C -70.98848 624.8296 -69.79435 626.0237 -69.09953 627.5089 L -.8943961 773.2963 C .7438489 776.798 -.7667977 780.96475 -4.2685197 782.603 C -5.197063 783.0374 -6.209688 783.2626 -7.234825 783.2626 L -143.64509 783.2626 C -147.51108 783.2626 -150.64509 780.1286 -150.64509 776.2626 C -150.64509 775.2374 -150.41993 774.2248 -149.98552 773.2963 Z" fill="url(#Obj_Gradient_2)"/>
      </g>
    </g>
  </g>
</svg>
