<svg width="419" height="421" viewBox="0 0 419 421" fill="none" xmlns="http://www.w3.org/2000/svg">
<path fill-rule="evenodd" clip-rule="evenodd" d="M320.138 297.485C320.138 271.808 340.957 250.984 366.639 250.984C392.32 250.984 413.14 271.803 413.14 297.485C413.14 323.167 392.32 343.99 366.639 343.99C340.957 343.99 320.138 323.166 320.138 297.485Z" fill="#F3F6FF"/>
<path fill-rule="evenodd" clip-rule="evenodd" d="M64.1298 198.217C64.1298 133.828 116.327 81.6292 180.717 81.6292C245.107 81.6292 297.305 133.826 297.305 198.217C297.305 262.608 245.107 314.805 180.717 314.805C116.327 314.805 64.1298 262.606 64.1298 198.217Z" fill="#EAF0FF"/>
<path fill-rule="evenodd" clip-rule="evenodd" d="M71.8655 239.058C75.1462 236.029 86.6571 225.463 89.0395 224.386C91.422 223.309 119.052 254.132 116.323 256.337C113.594 258.543 99.151 271.843 93.7197 275.226C82.8703 263.417 75.3265 249.856 71.8655 239.058Z" fill="white"/>
<path d="M87.2253 221.351C87.6545 221.157 88.0908 221.268 88.6215 221.56C88.8096 221.663 89.0165 221.796 89.2429 221.957L89.3344 222.023C89.3653 222.045 89.3965 222.068 89.4281 222.092L89.5238 222.164C89.5399 222.176 89.5561 222.188 89.5724 222.201L89.6713 222.277L89.7723 222.357L89.8754 222.439L89.9806 222.525L90.0725 222.601L90.1661 222.679L90.2613 222.759L90.3581 222.842L90.5063 222.97L90.6581 223.103L90.8134 223.241L90.9722 223.384L91.1344 223.532L91.3001 223.685L91.4125 223.789L91.5838 223.95L91.7584 224.116L91.9364 224.286L92.0568 224.402L92.2402 224.58L92.4267 224.763L92.5529 224.887L92.7447 225.077L92.9396 225.272L93.1375 225.471L93.3385 225.675L93.5425 225.882L93.7494 226.095L93.9235 226.274L94.0994 226.457L94.2769 226.642L94.4561 226.829L94.6368 227.019L94.8192 227.212L95.003 227.407L95.2816 227.704L95.469 227.905L95.7528 228.21L95.9436 228.417L96.1358 228.626L96.3291 228.837L96.5236 229.049L96.7193 229.264L96.9161 229.481L97.114 229.7L97.3129 229.921L97.6131 230.255L97.9154 230.594L98.118 230.821L98.4234 231.166L98.628 231.398L98.9363 231.748L99.1426 231.984L99.4532 232.34L99.7652 232.699L100.078 233.061L100.392 233.425L100.707 233.792L100.917 234.039L101.233 234.41L101.444 234.658L101.655 234.908L101.972 235.283L102.183 235.535L102.5 235.914L102.712 236.167L102.923 236.421L103.24 236.803L103.556 237.186L103.876 237.575L104.093 237.84L104.417 238.237L104.739 238.634L105.059 239.029L105.375 239.422L105.585 239.683L105.793 239.944L106.001 240.204L106.309 240.592L106.513 240.85L106.816 241.235L107.116 241.618L107.413 241.998L107.609 242.251L107.899 242.627L108.091 242.876L108.376 243.248L108.564 243.494L108.75 243.739L108.935 243.983L109.118 244.225C109.148 244.265 109.178 244.306 109.208 244.346L109.388 244.586L109.566 244.824L109.743 245.061L110.003 245.414L110.175 245.647L110.344 245.878L110.512 246.107L110.677 246.335L110.841 246.561L111.002 246.785L111.161 247.008L111.318 247.228L111.473 247.447L111.625 247.663L111.775 247.877L111.923 248.09L112.069 248.3L112.212 248.508L112.353 248.714L112.492 248.918L112.628 249.12L112.762 249.319L112.933 249.576L113.037 249.734L113.139 249.889L113.239 250.043L113.338 250.196L113.435 250.346L113.53 250.495L113.624 250.643L113.715 250.788L113.805 250.932L113.893 251.074L113.98 251.215L114.064 251.353L114.147 251.49C114.161 251.513 114.174 251.536 114.188 251.558L114.307 251.759L114.384 251.891L114.46 252.021L114.534 252.149L114.606 252.276L114.676 252.4L114.744 252.523L114.81 252.644L114.875 252.764C114.885 252.783 114.896 252.803 114.906 252.822L114.968 252.939C114.978 252.958 114.988 252.977 114.998 252.997L115.057 253.11C115.067 253.129 115.076 253.148 115.086 253.167L115.142 253.278C115.151 253.296 115.16 253.314 115.169 253.332L115.223 253.441L115.274 253.547L115.323 253.652L115.371 253.754C115.379 253.771 115.386 253.788 115.394 253.805C115.676 254.428 115.853 254.953 115.919 255.39C116.009 255.993 115.9 256.502 115.484 256.838L115.428 256.884L115.306 256.985L115.194 257.08L115.097 257.162L114.94 257.298L114.738 257.476L114.482 257.703L114.307 257.86L114.003 258.134L113.755 258.359L113.255 258.817L112.582 259.436L111.754 260.202L107.038 264.586L106.243 265.323L105.063 266.413L104.53 266.903L104.088 267.309L103.781 267.591L103.328 268.005L102.739 268.541L102.309 268.932L101.888 269.313L101.476 269.684L101.074 270.046L100.681 270.397L100.298 270.739L99.9238 271.071L99.6797 271.286L99.3214 271.602L99.0877 271.806L98.7449 272.105L98.5215 272.299L98.1942 272.582L97.9811 272.764L97.7722 272.943L97.5673 273.117L97.3666 273.286L97.1699 273.452C97.1375 273.479 97.1052 273.506 97.0731 273.533L96.8826 273.691C96.8512 273.717 96.8199 273.743 96.7888 273.769L96.6044 273.921L96.4241 274.069C96.3944 274.093 96.3648 274.117 96.3354 274.141L96.1612 274.282C96.1325 274.305 96.1039 274.328 96.0756 274.351L95.9074 274.485L95.7433 274.616L95.5832 274.741C95.5568 274.762 95.5307 274.782 95.5047 274.802L95.3506 274.922C95.2999 274.96 95.2499 274.999 95.2006 275.036L95.0546 275.147L94.9126 275.252C94.7493 275.373 94.5942 275.485 94.4472 275.588L94.3232 275.674C94.1809 275.772 94.0467 275.861 93.9206 275.941C93.5736 276.161 93.1141 276.058 92.8943 275.711C92.6746 275.364 92.7777 274.904 93.1248 274.684C93.3618 274.534 93.6329 274.347 93.938 274.123L94.0709 274.025C94.0934 274.008 94.1161 273.992 94.1389 273.974L94.278 273.87C94.3015 273.852 94.3252 273.834 94.3491 273.815L94.4945 273.704C94.519 273.685 94.5438 273.666 94.5687 273.646L94.7203 273.528L94.8761 273.405L95.036 273.278L95.2 273.146L95.3682 273.01L95.5406 272.87L95.7171 272.725L95.8978 272.575L96.0826 272.422C96.1137 272.396 96.1451 272.369 96.1766 272.343L96.3676 272.183L96.5628 272.018L96.7621 271.849L96.9655 271.675L97.1731 271.497L97.3849 271.315L97.7102 271.033L97.9323 270.84L98.1585 270.642L98.3888 270.44L98.742 270.129L98.9827 269.917L99.3514 269.589L99.6024 269.366L99.9865 269.022L100.38 268.669L100.783 268.306L101.195 267.934L101.616 267.552L102.046 267.16L102.486 266.759L102.935 266.348L103.655 265.687L104.543 264.869L105.491 263.992L107.352 262.264L110.484 259.35L111.535 258.378L111.948 257.997L112.376 257.604L112.807 257.211L113.157 256.893L113.506 256.58L113.726 256.384L113.872 256.256L114.086 256.07L114.255 255.925L114.344 255.85L114.461 255.753L114.461 255.75C114.46 255.72 114.458 255.68 114.451 255.632L114.448 255.611C114.427 255.471 114.382 255.301 114.314 255.101L114.288 255.025C114.255 254.934 114.218 254.839 114.177 254.737L114.14 254.649C114.128 254.62 114.115 254.59 114.101 254.559L114.06 254.466C114.053 254.45 114.046 254.434 114.039 254.419L113.997 254.326C113.989 254.31 113.982 254.295 113.975 254.279L113.93 254.183L113.882 254.086L113.833 253.987L113.783 253.885L113.73 253.782L113.648 253.624L113.591 253.516L113.532 253.406L113.471 253.295C113.46 253.276 113.45 253.257 113.44 253.238L113.344 253.066L113.278 252.949L113.21 252.83L113.14 252.71L113.068 252.587L112.995 252.463L112.92 252.337L112.843 252.209L112.765 252.08L112.644 251.882L112.561 251.748L112.476 251.613L112.347 251.406L112.258 251.266L112.121 251.054L112.028 250.91L111.934 250.764L111.837 250.617L111.69 250.393L111.589 250.242L111.459 250.047L111.326 249.849L111.191 249.649L111.053 249.447L110.912 249.243L110.77 249.036L110.625 248.828L110.477 248.617L110.328 248.404L110.176 248.189L110.022 247.972L109.866 247.754L109.707 247.533L109.547 247.31L109.302 246.973L109.136 246.746L108.969 246.517L108.799 246.287L108.627 246.055L108.454 245.821L108.278 245.586L108.101 245.349L107.922 245.11L107.65 244.75L107.466 244.508L107.281 244.265L107.094 244.02L106.811 243.651L106.62 243.403L106.427 243.154L106.233 242.904L106.037 242.653L105.84 242.401L105.641 242.148L105.441 241.894L105.24 241.639L105.037 241.383L104.833 241.126L104.628 240.868L104.421 240.609L104.108 240.22L103.899 239.96L103.582 239.568L103.369 239.306L103.049 238.913L102.833 238.649L102.617 238.386L102.303 238.005L101.989 237.625L101.675 237.246L101.36 236.869L101.15 236.618L100.94 236.368L100.626 235.994L100.416 235.746L100.102 235.375L99.7884 235.007L99.5796 234.763L99.2671 234.398L99.0592 234.157L98.8518 233.917L98.5415 233.558L98.2324 233.203L97.9247 232.851L97.7203 232.618L97.5166 232.386L97.2124 232.042L97.0107 231.815L96.7096 231.476L96.5099 231.253L96.2123 230.921L95.9168 230.594L95.6238 230.27L95.3333 229.952L95.1411 229.742L94.9501 229.534L94.666 229.226L94.3849 228.923L94.1992 228.724L94.0149 228.528L93.8321 228.333L93.6508 228.141L93.4711 227.952L93.293 227.765L93.1165 227.581L92.9416 227.399L92.7685 227.22L92.5497 226.995L92.3527 226.793L92.1586 226.596L91.9674 226.404L91.7793 226.215L91.6555 226.092L91.4725 225.911L91.2926 225.734L91.1744 225.618L91.0576 225.505L90.9422 225.394L90.7719 225.23L90.6048 225.072L90.4411 224.917L90.3338 224.817L90.1756 224.671L90.021 224.53L89.8697 224.393L89.722 224.261L89.6255 224.176L89.5306 224.093L89.4373 224.012L89.3457 223.933L89.2556 223.857L89.1672 223.782C89.1526 223.77 89.1381 223.758 89.1236 223.746L89.0377 223.675L88.9511 223.605L88.8665 223.537L88.784 223.472C88.7704 223.461 88.7569 223.45 88.7434 223.44L88.6639 223.378L88.5865 223.32L88.5111 223.263L88.4379 223.21C88.4139 223.193 88.3902 223.176 88.3668 223.159L88.2979 223.111L88.2312 223.065L88.1667 223.022C88.1456 223.009 88.1248 222.995 88.1045 222.982L88.0445 222.945C87.9955 222.915 87.9488 222.888 87.9046 222.863C87.8341 222.825 87.7736 222.795 87.7251 222.775L87.7103 222.769L87.6789 222.786C87.5492 222.856 87.396 222.949 87.2202 223.066L87.1304 223.126C87.1151 223.136 87.0997 223.146 87.0841 223.157L86.9887 223.223L86.8896 223.292L86.7868 223.365L86.6804 223.442C86.6624 223.455 86.6442 223.468 86.6259 223.481L86.5141 223.563L86.3987 223.649L86.2797 223.738L86.1572 223.831L86.0313 223.927L85.8359 224.078L85.7013 224.183L85.5633 224.292C85.54 224.31 85.5166 224.329 85.4931 224.347L85.3501 224.461L85.2037 224.578L84.978 224.76L84.745 224.949L84.5856 225.079L84.4231 225.213L84.1733 225.419L83.9165 225.632L83.6528 225.853L83.3822 226.08L83.1049 226.315L82.8209 226.556L82.5304 226.804L82.133 227.145L81.7243 227.498L81.4105 227.77L81.0906 228.049L80.8739 228.238L80.6546 228.43L80.2082 228.822L79.9738 229.029C79.6392 229.324 79.3072 229.618 78.9763 229.912L78.4673 230.365L78.0534 230.735L77.4314 231.292L76.8059 231.856L76.1745 232.427L75.5349 233.007L74.7751 233.699L74.1095 234.307L73.3128 235.038L72.3713 235.904L71.2656 236.923C70.9638 237.202 70.4933 237.183 70.2146 236.881C69.936 236.579 69.9548 236.109 70.2566 235.83L71.3367 234.834L72.3702 233.884L73.1466 233.172L73.7959 232.579L74.4326 231.999L74.747 231.713L75.4718 231.056L75.9838 230.594L76.3908 230.228L76.6951 229.955L76.8942 229.776C77.0933 229.598 77.2921 229.42 77.4909 229.243L77.6899 229.065C78.121 228.681 78.5531 228.298 78.9898 227.913L79.3665 227.581L79.7356 227.257L80.0972 226.941L80.4511 226.633L80.7974 226.332L81.136 226.04L81.4668 225.755L81.7897 225.479L82.1049 225.211L82.3106 225.037L82.5127 224.866L82.7114 224.699L83.0026 224.456L83.1923 224.298L83.3785 224.144L83.6509 223.92L83.828 223.776L84.0014 223.635L84.1712 223.498L84.3374 223.365L84.4998 223.236L84.6586 223.111L84.8137 222.989L84.965 222.872L85.1126 222.758L85.2565 222.649L85.3966 222.543L85.5329 222.441C85.5553 222.425 85.5776 222.408 85.5997 222.392L85.7303 222.296C85.7518 222.28 85.7731 222.265 85.7942 222.25L85.9191 222.16L86.0402 222.074C86.5368 221.726 86.9333 221.483 87.2253 221.351Z" fill="#1B3C87"/>
<path fill-rule="evenodd" clip-rule="evenodd" d="M143.439 204.242C159.271 228.321 120.389 258.539 114.438 260.275C108.486 262.011 82.8601 226.903 84.7157 222.28C86.5713 217.656 124.321 175.165 143.439 204.242Z" fill="#46DBC9"/>
<path d="M122.924 190.75C130.541 190.304 137.018 193.615 141.968 201.144C145.815 206.994 146.727 213.486 145.054 220.397C143.623 226.309 140.333 232.393 135.599 238.407C131.693 243.37 126.932 248.107 122.084 252.06L121.963 252.159L121.721 252.355C121.439 252.582 121.158 252.805 120.88 253.023L120.643 253.209C120.445 253.363 120.249 253.514 120.054 253.663L119.821 253.84C119.744 253.899 119.666 253.957 119.589 254.015L119.359 254.187C119.054 254.415 118.753 254.635 118.457 254.848L118.236 255.006C118.2 255.032 118.163 255.058 118.127 255.084L117.909 255.238C117.476 255.543 117.056 255.829 116.652 256.096L116.451 256.228L116.253 256.356C114.683 257.37 113.386 258.056 112.554 258.299C110.765 258.821 108.05 257.1 104.411 253.564C104.162 253.321 103.909 253.071 103.652 252.812L103.459 252.617C103.298 252.453 103.135 252.286 102.972 252.117L102.774 251.911L102.576 251.703L102.377 251.493L102.176 251.279L101.975 251.064L101.772 250.845C101.705 250.772 101.637 250.698 101.569 250.624L101.365 250.4C101.331 250.363 101.296 250.325 101.262 250.287L101.056 250.06L100.85 249.83C100.815 249.792 100.781 249.753 100.746 249.714L100.538 249.481C100.504 249.442 100.469 249.403 100.434 249.364L100.225 249.127L100.015 248.888C99.9804 248.848 99.9454 248.807 99.9103 248.767L99.6995 248.525C99.6643 248.484 99.6291 248.443 99.5939 248.403L99.3821 248.157C99.3467 248.116 99.3113 248.074 99.2759 248.033L99.0632 247.784L98.8499 247.533L98.6361 247.28L98.4217 247.025L98.2069 246.768L97.9916 246.509C97.9557 246.466 97.9197 246.423 97.8838 246.379L97.6679 246.117C97.6318 246.074 97.5958 246.03 97.5597 245.986L97.3433 245.721L97.1265 245.455L96.9093 245.187C96.8731 245.142 96.8369 245.098 96.8007 245.053L96.5831 244.782L96.3654 244.51L96.1475 244.236C96.1111 244.191 96.0748 244.145 96.0384 244.099L95.8202 243.823C95.7839 243.777 95.7475 243.731 95.7111 243.684L95.4927 243.406L95.2743 243.126L95.0558 242.845C95.0194 242.798 94.983 242.751 94.9466 242.704L94.7281 242.421L94.5096 242.136L94.2912 241.851C94.2548 241.803 94.2184 241.755 94.1821 241.707L93.9638 241.42L93.7536 241.141C93.7186 241.095 93.6836 241.049 93.6487 241.002L93.4396 240.723L93.2312 240.444L93.0237 240.165C92.9892 240.119 92.9547 240.072 92.9202 240.025L92.714 239.746C92.6797 239.699 92.6454 239.653 92.6112 239.606L92.4063 239.327L92.2023 239.047L91.9993 238.768L91.7974 238.489L91.5964 238.209L91.3966 237.931L91.1979 237.652C91.1648 237.605 91.1319 237.559 91.0989 237.513L90.9019 237.234L90.7062 236.957L90.5116 236.679L90.3183 236.402L90.1263 236.126L89.9356 235.85L89.7463 235.575L89.5584 235.3L89.372 235.027L89.187 234.753L89.0035 234.481L88.8215 234.21L88.6411 233.94C88.6112 233.895 88.5813 233.85 88.5515 233.805L88.3736 233.536L88.1972 233.268L88.0226 233.001L87.8497 232.735L87.6785 232.471C87.6501 232.427 87.6218 232.383 87.5936 232.339L87.4251 232.077L87.2585 231.815C87.2309 231.772 87.2033 231.729 87.1758 231.685L87.012 231.426C86.9849 231.383 86.9578 231.34 86.9308 231.297L86.7699 231.04L86.6109 230.785L86.454 230.531L86.2991 230.278L86.1462 230.028L85.9955 229.779L85.8469 229.532L85.7005 229.286L85.5562 229.043L85.4143 228.801C85.3908 228.761 85.3674 228.721 85.3441 228.681L85.2056 228.442L85.0693 228.206L84.9275 227.957L84.7807 227.698C82.4343 223.53 81.3809 220.689 81.9342 219.312C81.9993 219.151 82.0968 218.958 82.2241 218.737L82.2767 218.647L82.3323 218.554C82.3419 218.538 82.3515 218.523 82.3613 218.507L82.4217 218.41C82.432 218.393 82.4424 218.377 82.453 218.36L82.5179 218.259L82.5858 218.155C82.5973 218.138 82.609 218.12 82.6208 218.102L82.6931 217.994C82.7177 217.958 82.7428 217.921 82.7684 217.884L82.8465 217.771L82.9274 217.655L83.0111 217.537C83.0253 217.517 83.0396 217.497 83.054 217.477L83.1419 217.356C83.1568 217.335 83.1717 217.315 83.1868 217.294L83.2787 217.169L83.3733 217.042L83.4705 216.913L83.5702 216.781L83.6725 216.647L83.7773 216.512L83.8845 216.374L83.9942 216.234L84.1063 216.093L84.2207 215.95L84.3374 215.804L84.4564 215.657L84.5777 215.509L84.7012 215.359C84.722 215.333 84.7428 215.308 84.7637 215.283L84.8905 215.13L85.0193 214.976L85.1502 214.821L85.2832 214.664L85.4181 214.505L85.5551 214.346L85.6939 214.185C85.7172 214.158 85.7406 214.131 85.7641 214.104L85.9057 213.941L86.0493 213.777L86.1946 213.612L86.3417 213.446L86.4905 213.279L86.641 213.111L86.7932 212.942C87.0686 212.637 87.5389 212.613 87.8437 212.889C88.1484 213.164 88.1723 213.634 87.8969 213.939L87.7518 214.1L87.6082 214.26L87.4662 214.42L87.3258 214.578L87.1871 214.736L86.9822 214.97L86.8478 215.125L86.7153 215.278L86.5845 215.431L86.3919 215.657L86.266 215.806L86.142 215.953L85.9598 216.172L85.7824 216.387L85.6667 216.528L85.5532 216.668L85.442 216.805L85.333 216.941L85.2263 217.075L85.122 217.207L85.02 217.337L84.9205 217.465L84.8234 217.59L84.7288 217.714L84.6368 217.835L84.5474 217.954C84.5327 217.974 84.5181 217.993 84.5036 218.013L84.4181 218.128L84.3353 218.241L84.2552 218.351L84.1779 218.459C84.1653 218.477 84.1527 218.494 84.1403 218.512L84.0672 218.616L83.997 218.717L83.9296 218.815C83.9186 218.831 83.9078 218.847 83.8971 218.863L83.8341 218.957L83.7742 219.048C83.7645 219.063 83.7549 219.078 83.7454 219.093L83.6901 219.179C83.5109 219.463 83.3834 219.696 83.3143 219.867C83.284 219.942 83.2685 220.047 83.2684 220.177L83.2689 220.222L83.2705 220.269C83.2709 220.276 83.2713 220.284 83.2718 220.293L83.2752 220.342L83.2797 220.394C83.2814 220.411 83.2833 220.429 83.2854 220.447L83.2922 220.502L83.3002 220.559L83.3094 220.618C83.3111 220.628 83.3128 220.638 83.3145 220.648L83.3254 220.71L83.3376 220.774C83.3418 220.795 83.3463 220.817 83.3509 220.839L83.3655 220.906L83.3812 220.975L83.3982 221.046L83.4163 221.118L83.4357 221.192L83.4563 221.268C83.4598 221.281 83.4634 221.294 83.4671 221.307L83.4895 221.385L83.5132 221.465L83.5381 221.547L83.5642 221.631L83.5917 221.716C83.5963 221.73 83.601 221.744 83.6058 221.759L83.6351 221.846L83.6657 221.935L83.6975 222.026L83.7306 222.118L83.7649 222.211L83.8006 222.306L83.8426 222.416L83.8913 222.541C83.8996 222.562 83.908 222.583 83.9164 222.604L83.968 222.732L84.0215 222.862L84.0768 222.993L84.134 223.127L84.193 223.263L84.2538 223.401L84.3165 223.541C84.3271 223.564 84.3378 223.588 84.3485 223.611L84.4139 223.754L84.4812 223.899C84.4925 223.923 84.5039 223.947 84.5154 223.972L84.5853 224.119L84.657 224.269L84.7305 224.42L84.8057 224.573L84.8827 224.728L84.9614 224.885C84.9747 224.911 84.988 224.937 85.0014 224.964L85.0827 225.123L85.1658 225.284L85.2506 225.447L85.337 225.612L85.4252 225.778L85.5151 225.946L85.6531 226.202L85.7471 226.374L85.8428 226.548L85.9402 226.724L86.0392 226.901L86.1399 227.08L86.2422 227.26L86.2939 227.351C86.3379 227.428 86.3822 227.505 86.4269 227.583L86.5623 227.817C86.6078 227.895 86.6536 227.974 86.6999 228.053L86.8398 228.291L86.982 228.531L87.1263 228.773C87.1506 228.813 87.1749 228.854 87.1993 228.895L87.3469 229.139C87.3717 229.18 87.3966 229.221 87.4215 229.262L87.5723 229.509L87.7251 229.758C87.7764 229.841 87.8281 229.925 87.88 230.009L88.0369 230.261L88.1957 230.514L88.3565 230.769L88.5192 231.026L88.6838 231.284L88.8501 231.543L89.0183 231.804C89.0465 231.847 89.0747 231.891 89.1031 231.934L89.2739 232.197L89.4464 232.46C89.4753 232.504 89.5043 232.548 89.5333 232.593L89.7084 232.858C89.7377 232.902 89.7671 232.946 89.7965 232.991L89.974 233.257L90.1531 233.525L90.3337 233.794L90.5158 234.063L90.6994 234.333L90.8845 234.604L91.071 234.876C91.1022 234.921 91.1334 234.967 91.1647 235.012L91.3533 235.285L91.5431 235.558L91.7343 235.832L91.9267 236.106L92.1204 236.381L92.3152 236.656L92.5112 236.932L92.7083 237.208L92.9066 237.484L93.1059 237.76L93.3062 238.036L93.5075 238.313C93.5411 238.359 93.5748 238.405 93.6085 238.451L93.8113 238.727C93.8451 238.774 93.879 238.82 93.913 238.866L94.1171 239.142L94.322 239.418L94.5278 239.695C94.5622 239.741 94.5966 239.787 94.631 239.833L94.8379 240.109L95.0456 240.384L95.2576 240.664L95.4734 240.948C95.5094 240.995 95.5453 241.042 95.5813 241.089L95.7972 241.371L96.0131 241.652L96.229 241.931C96.265 241.977 96.301 242.024 96.337 242.07L96.5528 242.347L96.7686 242.623L96.9843 242.897C97.0202 242.942 97.0562 242.988 97.0921 243.033L97.3076 243.305C97.3434 243.35 97.3793 243.396 97.4152 243.441L97.6304 243.71L97.8453 243.978L98.06 244.245L98.2744 244.509L98.4885 244.772L98.7022 245.033L98.9156 245.292C98.9511 245.336 98.9866 245.379 99.0221 245.421L99.2348 245.678L99.447 245.933L99.6588 246.185L99.87 246.436L100.081 246.685L100.291 246.931C100.326 246.972 100.361 247.013 100.396 247.054L100.605 247.297L100.813 247.539L101.021 247.778L101.228 248.015L101.435 248.249L101.64 248.482L101.845 248.712C101.879 248.75 101.913 248.788 101.947 248.826L102.15 249.052L102.353 249.276C102.42 249.35 102.488 249.424 102.555 249.498L102.755 249.716C102.822 249.789 102.889 249.861 102.955 249.933L103.154 250.147C103.22 250.218 103.286 250.288 103.351 250.358L103.548 250.567C103.646 250.67 103.744 250.773 103.841 250.874L104.034 251.076C104.099 251.143 104.163 251.209 104.227 251.275L104.418 251.471C104.514 251.568 104.609 251.665 104.703 251.76L104.891 251.949C105.079 252.136 105.264 252.319 105.448 252.497L105.595 252.639L105.74 252.779C105.765 252.802 105.789 252.825 105.813 252.848L105.957 252.985L106.1 253.12L106.242 253.252L106.383 253.383C106.406 253.404 106.43 253.426 106.453 253.447L106.592 253.574L106.73 253.699L106.867 253.821C106.89 253.842 106.913 253.862 106.935 253.882L107.071 254.001C107.115 254.041 107.16 254.08 107.205 254.118L107.338 254.233L107.469 254.346L107.6 254.456C107.665 254.511 107.729 254.565 107.793 254.617L107.921 254.722L108.047 254.824L108.172 254.925C108.214 254.958 108.255 254.99 108.296 255.022L108.419 255.118C108.439 255.134 108.459 255.149 108.479 255.165L108.6 255.257L108.72 255.346C108.739 255.361 108.759 255.376 108.779 255.39L108.896 255.476C108.974 255.533 109.051 255.588 109.127 255.641L109.241 255.72L109.353 255.797C109.372 255.81 109.39 255.822 109.409 255.834L109.519 255.907C109.574 255.943 109.628 255.978 109.682 256.012L109.727 256.041L109.815 256.096C109.83 256.105 109.845 256.114 109.86 256.123L109.947 256.175L110.033 256.226L110.117 256.275C110.131 256.283 110.145 256.291 110.159 256.298L110.242 256.344C110.255 256.352 110.269 256.359 110.283 256.367L110.363 256.41L110.443 256.451C110.469 256.464 110.495 256.478 110.521 256.49L110.598 256.528L110.674 256.564L110.748 256.598C110.76 256.603 110.772 256.609 110.784 256.614L110.857 256.646C110.88 256.656 110.904 256.665 110.927 256.675L110.997 256.703C111.043 256.72 111.088 256.737 111.132 256.753L111.197 256.775C111.208 256.778 111.218 256.782 111.229 256.785L111.292 256.805L111.354 256.823C111.679 256.913 111.942 256.928 112.137 256.871C112.582 256.741 113.22 256.439 114 255.993L114.158 255.902C114.584 255.654 115.05 255.366 115.547 255.043L115.735 254.919L115.926 254.793C115.99 254.75 116.054 254.707 116.119 254.664L116.316 254.531L116.515 254.395C116.615 254.326 116.716 254.256 116.818 254.185L117.023 254.042L117.231 253.895L117.441 253.746C117.511 253.695 117.582 253.645 117.653 253.593L117.867 253.438C117.902 253.412 117.938 253.386 117.974 253.36L118.191 253.201C118.264 253.147 118.337 253.093 118.41 253.039L118.63 252.874L118.852 252.707C119.038 252.567 119.225 252.424 119.414 252.279L119.641 252.103C119.983 251.838 120.329 251.565 120.677 251.285L120.91 251.097L121.144 250.907C125.911 247.02 130.596 242.36 134.43 237.487C139.042 231.628 142.234 225.726 143.609 220.047C145.188 213.521 144.335 207.451 140.725 201.961C136.065 194.873 130.093 191.821 123.011 192.235C116.967 192.588 110.254 195.463 103.286 200.297C102.949 200.531 102.485 200.447 102.251 200.11C102.017 199.772 102.101 199.309 102.438 199.075C109.611 194.099 116.563 191.122 122.924 190.75Z" fill="#1B3C87"/>
<path fill-rule="evenodd" clip-rule="evenodd" d="M175.25 183.82C157.417 183.713 139.871 187.144 131.223 193.863C117.179 204.775 107.839 272.231 111.867 292.306C131.159 306.447 154.958 314.802 180.711 314.802C201.041 314.802 220.152 309.592 236.793 300.444C239.738 275.379 232.477 203.725 220.993 195.008C211.201 187.574 193.083 183.927 175.25 183.82Z" fill="#46DBC9"/>
<path d="M172.639 180.462C191.861 180.577 209.415 184.654 218.827 191.799C221.91 194.14 224.744 200.571 227.307 210.4C229.611 219.235 231.625 230.612 233.136 243.013C236.149 267.731 236.697 292.28 234.251 302.067C234.151 302.465 233.747 302.707 233.349 302.608C232.958 302.51 232.717 302.119 232.803 301.727L232.808 301.706C235.197 292.15 234.651 267.738 231.659 243.193C228.451 216.869 223.282 197.049 217.927 192.983C208.823 186.072 191.56 182.063 172.63 181.949C154.041 181.837 137.186 185.525 129.064 191.835C124.261 195.566 119.733 206.699 116.07 222.779C115.979 223.18 115.581 223.43 115.18 223.339C114.78 223.248 114.529 222.849 114.62 222.449C118.36 206.03 122.976 194.681 128.152 190.66C136.51 184.167 153.404 180.424 172.073 180.459L172.639 180.462Z" fill="#1B3C87"/>
<path d="M108.319 266.912C108.345 266.502 108.698 266.191 109.108 266.217C109.518 266.242 109.829 266.596 109.804 267.006C109.184 276.826 109.262 284.96 110.045 289.906C110.109 290.312 109.833 290.692 109.427 290.757C109.021 290.821 108.64 290.544 108.576 290.138C107.772 285.062 107.694 276.832 108.319 266.912Z" fill="#1B3C87"/>
<path d="M28.9479 0.528881L6.09573 61.0656C5.95068 61.4498 6.14458 61.8789 6.52883 62.024L59.7877 82.1331C60.172 82.2782 60.6011 82.0843 60.7462 81.7001L83.6059 21.1642C83.751 20.7799 83.5571 20.3508 83.1728 20.2057L29.9064 0.0957446C29.5221 -0.049338 29.093 0.144586 28.9479 0.528881ZM30.0768 1.75001L81.9516 21.3346L59.6174 80.4788L7.75009 60.895L30.0768 1.75001Z" fill="#B6C6FC"/>
<path d="M352.49 294.463L268.329 315.68C267.969 315.771 267.731 316.113 267.771 316.482L279.087 419.384C279.165 420.096 280.105 420.297 280.468 419.68L353.313 295.561C353.647 294.992 353.129 294.302 352.49 294.463ZM351.131 296.34L280.32 416.992L269.321 316.964L351.131 296.34Z" fill="#B6C6FC"/>
<path d="M59.3457 54.3362C41.6509 54.3362 27.3069 68.6799 27.3069 86.3749C27.3069 104.07 41.6491 118.414 59.3432 118.414C77.0376 118.414 91.3819 104.069 91.3819 86.3749C91.3819 68.68 77.0397 54.3362 59.3457 54.3362ZM59.3457 55.8236C76.2181 55.8236 89.8945 69.5015 89.8945 86.3749C89.8945 103.248 76.2161 116.926 59.3432 116.926C42.4707 116.926 28.7944 103.248 28.7944 86.3749C28.7944 69.5014 42.4724 55.8236 59.3457 55.8236Z" fill="#B6C6FC"/>
<path fill-rule="evenodd" clip-rule="evenodd" d="M250.188 292.884C247.703 290.399 230.577 267.04 228.647 264.841C226.718 262.643 263.334 232.279 265.586 234.934C267.838 237.589 276.867 250.224 281.077 257.171C277.694 263.268 258.987 286.878 250.188 292.884Z" fill="white"/>
<path d="M250.419 291.473L241.957 279.871L239.612 276.662L238.396 275.001L236.961 273.044L235.78 271.436L234.519 269.724L233.496 268.337L232.945 267.592L232.42 266.883L231.921 266.21L231.333 265.421L231.001 264.975L230.581 264.413L230.188 263.89L230.002 263.643L229.652 263.178L229.407 262.855L229.178 262.554L228.966 262.276L228.769 262.021L228.59 261.789L228.479 261.647L228.376 261.516L228.28 261.395L228.192 261.285L228.112 261.185L228.039 261.096L227.974 261.018L227.916 260.95C227.907 260.94 227.899 260.93 227.89 260.92C227.68 260.68 227.607 260.379 227.639 260.066C227.662 259.849 227.734 259.626 227.85 259.383C228.01 259.046 228.265 258.651 228.612 258.193L228.688 258.094L228.767 257.993L228.842 257.898L228.914 257.809C228.938 257.779 228.963 257.748 228.988 257.718L229.064 257.626L229.142 257.532L229.223 257.436L229.347 257.291L229.433 257.192L229.52 257.091L229.61 256.989L229.748 256.833L229.891 256.675L229.989 256.567L230.089 256.458L230.243 256.291L230.348 256.179L230.509 256.007L230.675 255.833L230.788 255.715L230.961 255.535L231.079 255.414L231.198 255.291L231.32 255.167L231.444 255.041L231.633 254.851L231.826 254.657L231.957 254.526L232.091 254.394L232.362 254.127L232.571 253.923L232.762 253.738L232.956 253.55L233.152 253.361L233.352 253.17L233.555 252.977L233.76 252.782L233.968 252.586L234.286 252.288L234.501 252.087L234.719 251.885L234.939 251.681L235.162 251.476L235.387 251.269L235.615 251.06L235.961 250.745L236.195 250.534L236.55 250.214L236.789 249.999L237.03 249.783L237.274 249.565L237.519 249.347L237.767 249.128L238.016 248.907L238.268 248.686L238.521 248.464L238.776 248.241L239.161 247.904L239.551 247.566L239.813 247.34L240.076 247.113L240.34 246.886L240.607 246.658L241.008 246.315L241.278 246.085L241.549 245.855L241.821 245.625L242.094 245.395L242.506 245.048L242.92 244.702L243.198 244.47L243.615 244.123L243.895 243.891L244.175 243.659L244.457 243.428L244.738 243.196L245.168 242.845L245.599 242.493L245.886 242.26L246.173 242.027L246.459 241.796L246.745 241.566L247.03 241.337L247.315 241.109L247.74 240.77L248.164 240.433L248.446 240.21L248.726 239.989L249.006 239.769L249.424 239.442L249.839 239.118L250.253 238.797L250.663 238.48L250.935 238.271L251.341 237.96L251.61 237.755L251.878 237.552L252.276 237.25L252.54 237.051L252.933 236.757C252.977 236.724 253.02 236.692 253.063 236.66L253.322 236.467L253.58 236.276L253.835 236.087L254.089 235.9L254.467 235.624L254.716 235.442L254.963 235.263L255.208 235.086L255.452 234.911L255.693 234.739L255.932 234.569C255.972 234.541 256.011 234.513 256.051 234.485L256.286 234.318L256.52 234.154L256.751 233.992L256.98 233.833L257.207 233.677L257.431 233.523L257.653 233.371L257.872 233.223L258.142 233.041L258.301 232.934L258.538 232.777L258.694 232.674L258.849 232.572L259.077 232.423L259.227 232.326L259.376 232.23L259.523 232.136L259.669 232.044L259.812 231.953L260.025 231.82L260.234 231.691L260.371 231.607L260.507 231.524L260.641 231.443L260.838 231.325L260.968 231.249L261.096 231.174L261.222 231.101L261.347 231.03L261.47 230.96L261.591 230.892L261.71 230.826C261.73 230.815 261.749 230.804 261.769 230.793L261.886 230.73L262.001 230.668L262.114 230.608C262.133 230.598 262.151 230.588 262.17 230.578L262.28 230.521L262.389 230.465L262.496 230.411L262.601 230.359L262.704 230.309C262.721 230.3 262.738 230.292 262.755 230.284C263.423 229.965 263.981 229.757 264.439 229.667C265.073 229.542 265.6 229.621 265.957 230.041L266.036 230.135C266.049 230.152 266.063 230.168 266.077 230.185L266.163 230.29L266.255 230.401L266.351 230.52L266.452 230.646L266.557 230.778L266.723 230.988L266.839 231.136L266.959 231.29L267.083 231.45L267.276 231.701L267.41 231.875L267.617 232.146L267.759 232.333L267.979 232.624L268.283 233.028L268.518 233.343L268.679 233.558L268.924 233.888L269.176 234.228L269.432 234.575L269.781 235.05L270.138 235.538L270.501 236.037L270.778 236.418L271.151 236.934L271.433 237.327L271.717 237.723L272.003 238.123L272.195 238.391L272.579 238.931L272.867 239.338L273.155 239.747L273.444 240.156L273.635 240.43L273.826 240.703C273.907 240.818 273.988 240.934 274.068 241.049L274.307 241.393L274.663 241.905L274.897 242.245L275.129 242.582L275.36 242.917C275.398 242.973 275.436 243.029 275.474 243.084L275.701 243.416L275.926 243.747L276.259 244.238L276.478 244.562L276.803 245.045L277.016 245.363L277.227 245.679L277.435 245.993L277.641 246.304L277.845 246.613L278.046 246.919L278.244 247.222L278.44 247.523L278.633 247.82C278.665 247.87 278.696 247.919 278.728 247.968L278.917 248.262L279.103 248.552L279.286 248.84L279.467 249.124L279.645 249.406L279.819 249.684L279.991 249.959C280.02 250.005 280.048 250.051 280.076 250.096L280.243 250.366L280.408 250.633L280.569 250.897C280.649 251.028 280.727 251.158 280.805 251.286L280.958 251.541L281.108 251.793L281.255 252.041L281.399 252.286C281.446 252.367 281.493 252.447 281.539 252.527L281.676 252.764C281.969 253.273 282.238 253.756 282.482 254.211L282.592 254.418C282.665 254.555 282.735 254.69 282.803 254.821C282.991 255.186 282.847 255.635 282.481 255.823C282.116 256.011 281.668 255.867 281.48 255.501C281.397 255.341 281.311 255.176 281.221 255.007L281.11 254.801L280.997 254.592C280.939 254.486 280.88 254.379 280.819 254.27L280.696 254.05L280.57 253.827C280.527 253.751 280.484 253.676 280.44 253.599L280.307 253.368C280.285 253.329 280.262 253.29 280.239 253.251L280.101 253.014L279.96 252.773L279.815 252.529L279.667 252.281C279.592 252.156 279.516 252.03 279.439 251.902L279.283 251.645C279.257 251.602 279.23 251.559 279.204 251.516L279.043 251.254L278.879 250.988L278.712 250.72L278.543 250.448C278.514 250.402 278.485 250.357 278.457 250.311L278.282 250.034L278.105 249.754C278.075 249.708 278.046 249.661 278.016 249.613L277.834 249.329L277.65 249.042L277.463 248.751L277.273 248.458L277.081 248.162L276.886 247.864L276.688 247.562C276.655 247.512 276.622 247.461 276.589 247.41L276.387 247.105L276.183 246.797L275.977 246.486L275.768 246.173L275.556 245.857L275.343 245.539L275.127 245.219L274.908 244.896L274.688 244.571L274.465 244.244L274.24 243.915L274.013 243.584L273.668 243.083L273.436 242.747L273.202 242.408L272.965 242.068L272.607 241.555L272.331 241.16L272.054 240.766L271.776 240.372L271.499 239.98L271.221 239.589L270.944 239.2L270.668 238.813L270.394 238.43L270.03 237.924L269.76 237.55L269.492 237.179L269.052 236.574L268.707 236.101L268.369 235.64L267.957 235.081L267.637 234.65L267.327 234.234L267.028 233.834L266.882 233.64L266.669 233.358L266.396 232.998L266.136 232.658L266.012 232.496L265.89 232.339L265.716 232.114L265.604 231.971L265.496 231.834L265.393 231.703L265.293 231.579L265.198 231.46L265.107 231.348L265.021 231.242L264.939 231.143L264.905 231.102L264.901 231.102C264.862 231.105 264.811 231.111 264.749 231.122L264.726 231.126C264.625 231.146 264.509 231.177 264.379 231.219L264.308 231.243L264.233 231.27C264.22 231.274 264.208 231.279 264.195 231.284L264.116 231.313L264.035 231.345L263.952 231.378C263.909 231.396 263.866 231.414 263.821 231.433L263.731 231.472C263.716 231.479 263.701 231.486 263.686 231.493L263.592 231.535L263.496 231.579L263.397 231.626L263.303 231.672L263.206 231.719C263.19 231.727 263.174 231.735 263.157 231.744L263.058 231.794L262.906 231.872L262.802 231.926L262.696 231.983L262.589 232.04L262.48 232.1L262.369 232.161L262.256 232.224L262.141 232.289L262.025 232.355L261.907 232.423L261.787 232.493L261.666 232.564L261.543 232.637L261.418 232.712L261.227 232.827L261.033 232.946L260.901 233.027L260.701 233.152L260.496 233.28L260.289 233.412L260.148 233.502L260.006 233.594L259.79 233.734L259.57 233.878L259.346 234.025L259.196 234.126L258.966 234.279L258.812 234.383L258.596 234.528L258.379 234.677L258.158 234.828L257.935 234.981L257.71 235.137L257.483 235.296L257.253 235.457L257.02 235.621L256.668 235.87L256.43 236.04L256.19 236.212L255.948 236.386L255.705 236.563L255.459 236.741L255.211 236.922L254.961 237.105L254.709 237.29L254.456 237.478L254.201 237.667L253.944 237.858L253.556 238.149L253.295 238.345L253.033 238.543L252.769 238.743L252.503 238.944L252.103 239.25L251.834 239.456L251.428 239.768L251.02 240.084L250.609 240.403L250.196 240.726L249.919 240.943L249.502 241.271L249.223 241.492L248.943 241.714L248.663 241.937L248.381 242.161L247.958 242.5L247.675 242.727L247.249 243.07L246.822 243.416L246.537 243.648L246.108 243.997L245.822 244.231L245.542 244.461L245.262 244.691L244.983 244.921L244.705 245.151L244.428 245.382L244.151 245.612L243.738 245.956L243.464 246.186L243.055 246.53L242.784 246.759L242.514 246.987L242.245 247.216L241.977 247.443L241.711 247.671L241.446 247.897L241.051 248.237L240.79 248.462L240.53 248.686L240.272 248.91L240.015 249.133L239.633 249.467L239.256 249.798L239.006 250.017L238.759 250.236L238.513 250.454L238.149 250.778L237.789 251.1L237.551 251.313L237.199 251.631C237.161 251.666 237.122 251.701 237.083 251.736L236.738 252.049L236.511 252.257L236.287 252.462L236.064 252.667L235.845 252.87L235.628 253.071L235.413 253.271L235.201 253.469L234.992 253.665L234.786 253.859L234.583 254.052L234.283 254.338L234.087 254.526L233.893 254.713L233.703 254.897L233.542 255.054L233.343 255.249L233.147 255.442L233.019 255.568L232.769 255.818L232.646 255.941L232.466 256.123L232.348 256.243L232.175 256.42L232.062 256.536L231.896 256.708L231.734 256.877L231.577 257.043L231.424 257.206L231.324 257.313L231.227 257.419L231.131 257.523L231.037 257.625L230.946 257.726L230.812 257.875L230.725 257.973L230.641 258.069L230.558 258.164L230.478 258.257L230.399 258.348L230.286 258.483L230.213 258.571L230.141 258.657L230.072 258.742L230.006 258.825L229.939 258.909L229.874 258.993L229.811 259.074L229.751 259.154L229.693 259.232L229.638 259.307L229.585 259.381L229.535 259.453L229.488 259.522C229.48 259.533 229.473 259.545 229.465 259.556L229.422 259.622C229.408 259.644 229.395 259.665 229.381 259.686L229.343 259.747C229.325 259.778 229.308 259.807 229.291 259.836L229.26 259.892C229.235 259.937 229.213 259.981 229.193 260.021C229.182 260.045 229.172 260.068 229.163 260.088L229.154 260.11L229.198 260.164L229.271 260.254L229.352 260.354L229.438 260.462L229.581 260.643L229.684 260.774L229.851 260.989L229.97 261.143L230.095 261.306L230.365 261.658L230.584 261.946L230.898 262.36L231.324 262.926L231.599 263.291L231.986 263.808L232.503 264.501L233.172 265.4L233.893 266.373L234.534 267.239L235.21 268.154L236.214 269.516L237.128 270.759L238.255 272.293L239.799 274.399L241.396 276.581L243.997 280.142L251.619 290.594C251.862 290.925 251.79 291.39 251.459 291.633C251.128 291.876 250.662 291.805 250.419 291.473Z" fill="#1B3C87"/>
<path fill-rule="evenodd" clip-rule="evenodd" d="M210.84 191.42C229.33 178.733 273.958 222.307 273.847 235.296C273.736 248.286 234.056 271.888 227.446 268.48C220.161 264.726 182.467 210.877 210.84 191.42Z" fill="#46DBC9"/>
<path d="M208.678 188.441C213.288 185.279 219.572 185.285 227.019 188.035C233.544 190.444 240.835 194.929 248.048 200.79C254.668 206.168 260.894 212.458 265.495 218.358C270.2 224.389 272.878 229.572 272.849 232.943C272.821 236.261 270.487 240.223 266.273 244.598C262.561 248.453 257.459 252.534 251.751 256.299C250.944 256.832 250.131 257.353 249.316 257.862L248.991 258.065C248.393 258.436 247.795 258.799 247.197 259.155L246.872 259.348C246.003 259.861 245.138 260.357 244.279 260.833L243.957 261.01C241.173 262.542 238.472 263.863 236.014 264.886C230.947 266.995 227.227 267.741 225.364 266.781C222.961 265.541 218.112 259.852 213.408 252.655C213.184 252.311 213.28 251.85 213.624 251.625C213.968 251.401 214.429 251.497 214.654 251.841C219.217 258.824 223.951 264.378 226.045 265.458C227.362 266.137 230.789 265.45 235.442 263.513C237.296 262.741 239.296 261.794 241.368 260.711L241.68 260.548C241.836 260.466 241.992 260.383 242.149 260.299L242.462 260.131C242.619 260.046 242.777 259.961 242.935 259.875L243.251 259.702L243.567 259.527C243.937 259.321 244.309 259.112 244.681 258.9L245 258.717C245.213 258.594 245.427 258.471 245.64 258.346L245.961 258.158C246.923 257.592 247.889 257.004 248.852 256.398L249.173 256.195C249.28 256.127 249.387 256.059 249.494 255.991L249.814 255.786L250.134 255.579L250.454 255.371C250.614 255.267 250.773 255.162 250.932 255.057C263.043 247.069 271.314 238.48 271.362 232.93C271.415 226.804 260.529 212.847 247.11 201.944C240.014 196.178 232.857 191.776 226.504 189.431C219.466 186.832 213.663 186.826 209.52 189.668C204.741 192.945 201.724 197.334 200.323 202.721C199.047 207.629 199.125 213.323 200.426 219.627C200.509 220.029 200.251 220.422 199.848 220.505C199.446 220.588 199.053 220.33 198.97 219.927C197.626 213.416 197.545 207.497 198.884 202.347C200.374 196.618 203.6 191.924 208.678 188.441Z" fill="#1B3C87"/>
<path d="M180.717 80.8855C115.917 80.8855 63.386 133.417 63.386 198.217C63.386 263.017 115.917 315.548 180.717 315.548C245.518 315.548 298.049 263.018 298.049 198.217C298.049 133.416 245.518 80.8855 180.717 80.8855ZM180.717 82.373C244.697 82.373 296.561 134.237 296.561 198.217C296.561 262.197 244.697 314.061 180.717 314.061C116.738 314.061 64.8735 262.196 64.8735 198.217C64.8735 134.238 116.738 82.373 180.717 82.373Z" fill="#1B3C87"/>
<path fill-rule="evenodd" clip-rule="evenodd" d="M280.935 217.621C281.049 214.272 287.577 212.913 295.514 214.586C303.452 216.259 309.794 220.33 309.68 223.678C309.566 227.027 303.037 228.386 295.1 226.713C287.162 225.04 280.818 220.97 280.935 217.621Z" fill="white"/>
<path fill-rule="evenodd" clip-rule="evenodd" d="M283.289 204.808C283.404 201.46 289.931 200.1 297.869 201.773C305.806 203.446 312.149 207.517 312.034 210.866C311.92 214.214 305.392 215.574 297.454 213.901C289.516 212.228 283.178 208.157 283.289 204.808Z" fill="white"/>
<path fill-rule="evenodd" clip-rule="evenodd" d="M282.985 191.567C283.099 188.218 289.627 186.859 297.565 188.531C305.504 190.203 311.845 194.275 311.73 197.624C311.616 200.973 305.087 202.332 297.15 200.659C289.212 198.987 282.87 194.916 282.985 191.567Z" fill="white"/>
<path d="M286.112 185.976C288.901 185.46 292.512 185.603 296.319 186.405C304.58 188.145 311.206 192.399 311.074 196.25C310.98 198.992 307.736 200.571 302.887 200.708C302.477 200.719 302.134 200.396 302.123 199.985C302.111 199.575 302.435 199.233 302.845 199.221C307 199.104 309.53 197.872 309.588 196.2C309.632 194.9 308.307 193.243 305.866 191.676C303.306 190.033 299.791 188.656 296.013 187.86C292.384 187.096 288.965 186.961 286.382 187.438C285.978 187.513 285.59 187.246 285.516 186.842C285.441 186.438 285.708 186.05 286.112 185.976Z" fill="#1B3C87"/>
<path d="M283.996 199.924C286.849 198.689 291.546 198.576 296.623 199.646C304.884 201.387 311.51 205.641 311.378 209.492C311.278 212.443 307.532 214.04 302.084 213.958C301.673 213.952 301.345 213.614 301.351 213.203C301.358 212.793 301.695 212.465 302.106 212.471C306.834 212.542 309.83 211.265 309.892 209.441C309.936 208.142 308.611 206.485 306.17 204.918C303.611 203.275 300.096 201.898 296.317 201.102C291.514 200.089 287.113 200.195 284.587 201.289C284.21 201.453 283.772 201.279 283.609 200.902C283.445 200.525 283.619 200.088 283.996 199.924Z" fill="#1B3C87"/>
<path d="M285.862 211.797C288.34 211.6 291.244 211.823 294.266 212.459C302.527 214.2 309.153 218.453 309.021 222.305C308.934 224.849 306.128 226.396 301.823 226.714C301.414 226.745 301.057 226.437 301.027 226.028C300.996 225.618 301.304 225.261 301.714 225.231C305.351 224.962 307.482 223.787 307.534 222.254C307.579 220.955 306.254 219.297 303.813 217.731C301.253 216.088 297.738 214.711 293.959 213.915C291.071 213.306 288.309 213.094 285.98 213.28C285.57 213.312 285.212 213.007 285.179 212.597C285.147 212.188 285.452 211.829 285.862 211.797Z" fill="#1B3C87"/>
<path fill-rule="evenodd" clip-rule="evenodd" d="M48.9974 196.428C49.1121 193.079 55.6403 191.72 63.5779 193.393C71.5155 195.066 77.8576 199.136 77.7429 202.486C77.6283 205.836 71.1009 207.193 63.1624 205.521C55.224 203.848 48.8827 199.777 48.9974 196.428Z" fill="white"/>
<path fill-rule="evenodd" clip-rule="evenodd" d="M51.3541 183.615C51.4687 180.266 57.997 178.907 65.9346 180.58C73.8722 182.253 80.2143 186.324 80.0996 189.675C79.985 193.027 73.4575 194.383 65.5199 192.71C57.5823 191.037 51.2394 186.965 51.3541 183.615Z" fill="white"/>
<path fill-rule="evenodd" clip-rule="evenodd" d="M51.05 170.373C51.1646 167.024 57.6929 165.665 65.6305 167.338C73.5681 169.011 79.9102 173.082 79.7955 176.431C79.6809 179.78 73.1534 181.138 65.2158 179.466C57.2782 177.793 50.9361 173.72 51.05 170.373Z" fill="white"/>
<path d="M48.0888 168.471C48.2271 164.431 55.2199 162.975 63.5657 164.734C64.81 164.996 66.0291 165.319 67.2013 165.693L67.4275 165.766C69.4962 166.442 71.4124 167.279 73.0535 168.224C73.4094 168.429 73.5318 168.884 73.3268 169.24C73.1218 169.596 72.667 169.718 72.3111 169.513C69.8255 168.082 66.6429 166.901 63.2592 166.19C62.6561 166.062 62.0588 165.953 61.4703 165.86L61.25 165.827C58.2449 165.376 55.4785 165.379 53.3403 165.824C50.9194 166.328 49.6166 167.319 49.5754 168.522C49.5323 169.784 50.7821 171.388 53.1025 172.919C53.4453 173.145 53.5398 173.607 53.3136 173.949C53.0874 174.292 52.6261 174.387 52.2832 174.161C49.5745 172.373 48.0235 170.383 48.0888 168.471Z" fill="#1B3C87"/>
<path d="M48.3928 181.713C48.5312 177.673 55.5236 176.217 63.8701 177.975C67.1622 178.669 70.2768 179.788 72.811 181.164C73.172 181.36 73.3058 181.811 73.1098 182.172C72.9138 182.533 72.4623 182.667 72.1013 182.471C69.6971 181.166 66.7182 180.096 63.5634 179.43C59.7938 178.636 56.2519 178.523 53.6444 179.066C51.2234 179.57 49.9206 180.561 49.8794 181.764C49.8185 183.541 52.2886 185.902 56.3657 187.789C56.7385 187.962 56.9008 188.404 56.7282 188.777C56.5557 189.15 56.1136 189.312 55.7409 189.139C51.1696 187.023 48.3046 184.284 48.3928 181.713Z" fill="#1B3C87"/>
<path d="M46.0362 194.525C46.1746 190.485 53.1677 189.029 61.5135 190.787C66.1396 191.763 70.3857 193.573 73.1334 195.699C73.4582 195.951 73.5177 196.418 73.2663 196.743C73.0149 197.067 72.5477 197.127 72.2229 196.876C69.6664 194.897 65.6258 193.175 61.2067 192.243C57.4373 191.448 53.8954 191.335 51.2878 191.878C48.8669 192.382 47.564 193.373 47.5228 194.576C47.4387 197.033 52.0521 200.387 58.4701 202.257C58.8645 202.372 59.0911 202.785 58.9762 203.179C58.8613 203.573 58.4485 203.8 58.0541 203.685C51.0362 201.641 45.92 197.921 46.0362 194.525Z" fill="#1B3C87"/>
<path fill-rule="evenodd" clip-rule="evenodd" d="M193.089 158.202C192.334 162.501 188.851 179.813 191.52 198.578C188.441 200.905 170.49 202.586 165.552 198.578C165.726 190.967 165.9 175.746 165.204 171.854C164.507 167.961 193.847 153.903 193.089 158.202Z" fill="white"/>
<path d="M186.726 154.765L186.87 154.723L187.012 154.682C187.036 154.676 187.059 154.669 187.082 154.663L187.221 154.624L187.358 154.588L187.492 154.552L187.625 154.518C187.646 154.513 187.668 154.507 187.69 154.502L187.819 154.47L187.947 154.44L188.072 154.411L188.195 154.384C188.235 154.375 188.276 154.366 188.316 154.358L188.434 154.334L188.551 154.311C188.724 154.278 188.891 154.25 189.05 154.227L189.154 154.213C189.5 154.167 189.81 154.148 190.083 154.155C190.595 154.169 191.01 154.274 191.328 154.516C191.728 154.822 191.891 155.289 191.811 155.802L191.403 158.089L191.303 158.656L191.297 158.692C191.045 160.158 190.816 161.597 190.599 163.122C189.931 167.816 189.48 172.625 189.319 177.61C189.118 183.873 189.394 190.025 190.241 195.977C190.279 196.245 190.168 196.513 189.952 196.676C188.42 197.831 183.93 198.782 178.817 199.118C178.408 199.145 178.053 198.834 178.027 198.424C178 198.014 178.31 197.66 178.72 197.634C179.159 197.605 179.594 197.571 180.022 197.533L180.278 197.509C180.534 197.485 180.787 197.46 181.037 197.433L181.286 197.405L181.534 197.377C181.698 197.358 181.861 197.338 182.022 197.317L182.263 197.286C182.422 197.265 182.581 197.243 182.737 197.221L182.971 197.187C183.164 197.158 183.355 197.129 183.543 197.099L183.767 197.062C183.915 197.037 184.061 197.012 184.205 196.987L184.42 196.948L184.632 196.908C184.702 196.895 184.771 196.882 184.84 196.868L185.045 196.827C186.636 196.505 187.905 196.126 188.654 195.736L188.702 195.711L188.67 195.48C187.898 189.736 187.643 183.822 187.825 177.809L187.833 177.562C187.995 172.519 188.452 167.657 189.126 162.913C189.332 161.463 189.549 160.09 189.787 158.7L189.893 158.088L190.324 155.67L190.317 155.669C190.252 155.656 190.171 155.647 190.076 155.643L190.043 155.642C189.982 155.64 189.917 155.641 189.848 155.643L189.778 155.646C189.587 155.656 189.371 155.681 189.129 155.719L189.038 155.735L188.944 155.751L188.848 155.769L188.749 155.788C188.733 155.791 188.716 155.794 188.699 155.798L188.597 155.819C188.58 155.823 188.563 155.826 188.546 155.83L188.44 155.853L188.333 155.877L188.224 155.903L188.112 155.93L187.999 155.958L187.883 155.988L187.765 156.018L187.645 156.051L187.524 156.084L187.4 156.119L187.274 156.155L187.146 156.192L186.994 156.237L186.839 156.284C186.813 156.292 186.787 156.3 186.761 156.308L186.602 156.357L186.442 156.408L186.279 156.461L186.115 156.515C186.087 156.524 186.059 156.533 186.032 156.543L185.864 156.599L185.694 156.657L185.522 156.717L185.348 156.778L185.173 156.84L184.995 156.904L184.815 156.969C184.785 156.98 184.755 156.991 184.725 157.002L184.451 157.104C184.421 157.115 184.39 157.127 184.359 157.138L184.174 157.209L183.986 157.28C183.955 157.292 183.924 157.304 183.892 157.316L183.703 157.39C183.671 157.402 183.639 157.415 183.607 157.427L183.415 157.503L183.222 157.579L183.027 157.658C182.994 157.671 182.962 157.684 182.929 157.697L182.732 157.777L182.534 157.858L182.334 157.94L182.033 158.066L181.728 158.195L181.421 158.326L181.215 158.414L181.008 158.504L180.8 158.595L180.591 158.687L180.381 158.78C180.346 158.796 180.31 158.811 180.275 158.827L180.064 158.922L179.852 159.017L179.639 159.114L179.425 159.211L179.103 159.359L178.888 159.459L178.672 159.56L178.456 159.662L178.239 159.764L178.021 159.868L177.803 159.972L177.585 160.077L177.354 160.189L177.112 160.307L176.871 160.425L176.63 160.544C176.59 160.564 176.55 160.584 176.51 160.603L176.27 160.723L176.032 160.843L175.793 160.963L175.556 161.084L175.32 161.205L175.085 161.326L174.85 161.448L174.617 161.569L174.385 161.691L174.154 161.813L173.924 161.936L173.696 162.058L173.469 162.181L173.243 162.303L173.019 162.426L172.796 162.548L172.575 162.671L172.355 162.793L172.137 162.916L171.921 163.038C171.885 163.059 171.849 163.079 171.813 163.099L171.6 163.221L171.388 163.343C171.353 163.364 171.318 163.384 171.282 163.404L171.073 163.526L170.866 163.647L170.661 163.769L170.458 163.89L170.257 164.01L170.058 164.13C170.025 164.15 169.992 164.17 169.96 164.19L169.764 164.31C169.699 164.35 169.635 164.39 169.571 164.429L169.38 164.548L169.191 164.666L169.005 164.784C168.944 164.823 168.882 164.862 168.822 164.901L168.641 165.018C168.611 165.038 168.581 165.057 168.551 165.076L168.374 165.192C168.344 165.212 168.315 165.231 168.286 165.25L168.113 165.365C168.084 165.384 168.056 165.403 168.027 165.422L167.858 165.536L167.704 165.641L167.495 165.785L167.359 165.88L167.225 165.974C167.203 165.99 167.181 166.005 167.159 166.021L167.029 166.114L166.9 166.207C166.879 166.222 166.858 166.237 166.837 166.253L166.713 166.344C166.692 166.359 166.672 166.374 166.651 166.389L166.53 166.48C166.511 166.495 166.491 166.51 166.471 166.525L166.354 166.614L166.239 166.702L166.126 166.789L166.016 166.876L165.909 166.962C165.891 166.976 165.874 166.99 165.856 167.005L165.753 167.089L165.652 167.173C165.635 167.187 165.618 167.201 165.602 167.214L165.505 167.297L165.41 167.379L165.318 167.459C165.121 167.633 164.943 167.8 164.783 167.961L164.711 168.035L164.64 168.109C164.365 168.4 164.165 168.66 164.043 168.878C163.984 168.983 163.947 169.073 163.929 169.144C163.918 169.188 163.917 169.215 163.919 169.226C164.172 170.64 164.325 173.569 164.396 177.412L164.405 177.954C164.406 178.045 164.408 178.137 164.409 178.229L164.417 178.788C164.419 178.976 164.421 179.166 164.424 179.358L164.429 179.939C164.433 180.329 164.435 180.727 164.437 181.13L164.44 181.741C164.442 182.355 164.442 182.984 164.442 183.624L164.44 184.269L164.438 184.921C164.437 185.03 164.437 185.14 164.436 185.25L164.433 185.913L164.428 186.582L164.422 187.258C164.421 187.371 164.42 187.485 164.419 187.599L164.412 188.283L164.404 188.974L164.396 189.669L164.386 190.37L164.376 191.074C164.374 191.192 164.372 191.31 164.37 191.428L164.358 192.139L164.346 192.853L164.333 193.57L164.318 194.29L164.303 195.012L164.288 195.736C164.285 195.857 164.282 195.978 164.279 196.099C164.27 196.51 163.93 196.835 163.519 196.826C163.108 196.816 162.783 196.476 162.792 196.065L162.808 195.349L162.823 194.635L162.838 193.923C162.84 193.804 162.843 193.686 162.845 193.567L162.858 192.858L162.87 192.152L162.882 191.449C162.884 191.332 162.886 191.215 162.887 191.099L162.898 190.401L162.907 189.707L162.916 189.018C162.917 188.904 162.919 188.789 162.92 188.675L162.927 187.994C162.928 187.881 162.929 187.768 162.93 187.655L162.936 186.981L162.942 186.314C162.943 186.093 162.945 185.872 162.946 185.653L162.949 184.999L162.952 184.352C162.952 184.244 162.952 184.137 162.952 184.031L162.953 183.395L162.953 182.767L162.953 182.148C162.952 182.046 162.952 181.944 162.952 181.842L162.949 181.236L162.946 180.64C162.945 180.541 162.945 180.443 162.944 180.345L162.939 179.764C162.938 179.572 162.936 179.381 162.934 179.193L162.927 178.632L162.919 178.083L162.91 177.545C162.843 173.734 162.697 170.838 162.455 169.489C162.24 168.29 163.458 166.877 165.88 165.108L166.047 164.986C166.216 164.865 166.39 164.741 166.57 164.616L166.752 164.49C166.813 164.448 166.875 164.406 166.937 164.363L167.111 164.245L167.288 164.127C167.348 164.087 167.408 164.048 167.468 164.008L167.65 163.888L167.835 163.768L168.023 163.647C168.117 163.586 168.213 163.525 168.309 163.464L168.503 163.342C168.568 163.301 168.634 163.26 168.7 163.219L168.898 163.096L169.099 162.973L169.303 162.849C169.337 162.828 169.371 162.807 169.405 162.787L169.612 162.662L169.821 162.538L170.032 162.413L170.245 162.287C170.281 162.266 170.316 162.246 170.352 162.225L170.568 162.099L170.786 161.973C170.859 161.931 170.932 161.889 171.006 161.847L171.227 161.721L171.451 161.595L171.676 161.469L171.903 161.343L172.131 161.216C172.169 161.195 172.207 161.174 172.246 161.153L172.476 161.027C172.515 161.006 172.553 160.985 172.592 160.964L172.825 160.838L173.059 160.712L173.294 160.586L173.531 160.46L173.769 160.334L174.008 160.209L174.249 160.084L174.49 159.959L174.733 159.834L174.976 159.71L175.22 159.586L175.466 159.463C175.507 159.442 175.548 159.421 175.589 159.401L175.835 159.278L176.082 159.156L176.33 159.033L176.578 158.912C176.62 158.892 176.661 158.872 176.703 158.851L176.939 158.737L177.161 158.63L177.383 158.524L177.605 158.419L177.936 158.262L178.266 158.108L178.486 158.006L178.705 157.905L179.032 157.756L179.249 157.657L179.465 157.56L179.788 157.416L180.003 157.321L180.216 157.227L180.428 157.134L180.64 157.043L180.85 156.952L181.059 156.863L181.268 156.774L181.475 156.687L181.681 156.601L181.885 156.516C181.919 156.502 181.953 156.488 181.987 156.475L182.291 156.351L182.492 156.27L182.691 156.19L182.889 156.111L183.086 156.034C183.118 156.021 183.151 156.009 183.183 155.996L183.378 155.921L183.57 155.847L183.761 155.774L184.045 155.668L184.232 155.599L184.417 155.531L184.6 155.465C184.631 155.454 184.661 155.443 184.691 155.432L184.872 155.368L185.051 155.306L185.228 155.245L185.403 155.185L185.575 155.127L185.746 155.07L185.915 155.015C185.943 155.006 185.971 154.997 185.999 154.989L186.164 154.936C186.219 154.919 186.274 154.902 186.328 154.885L186.489 154.836L186.648 154.788C186.674 154.78 186.7 154.772 186.726 154.765Z" fill="#1B3C87"/>
<path fill-rule="evenodd" clip-rule="evenodd" d="M134.465 133.29C136.174 112.331 151.904 96.4864 169.598 97.8999C187.292 99.3135 200.252 117.45 198.543 138.409C196.834 159.368 181.105 175.216 163.41 173.803C145.716 172.391 132.756 154.249 134.465 133.29Z" fill="white"/>
<path d="M140.678 159.704C140.999 159.448 141.467 159.501 141.723 159.823C146.929 166.363 154.024 170.371 161.837 170.995C168.181 171.502 174.429 169.737 179.909 165.998C180.249 165.767 180.711 165.854 180.943 166.194C181.174 166.533 181.087 166.996 180.748 167.227C174.993 171.153 168.41 173.013 161.718 172.478C153.481 171.82 146.014 167.602 140.559 160.749C140.303 160.428 140.356 159.96 140.678 159.704Z" fill="#1B3C87"/>
<path d="M132.092 131.167C133.832 109.824 149.891 93.6474 168.026 95.096C186.161 96.5447 199.393 115.063 197.653 136.407C197.14 142.69 195.376 148.657 192.532 153.92C192.337 154.281 191.885 154.416 191.524 154.22C191.163 154.025 191.028 153.574 191.223 153.213C193.969 148.132 195.675 142.365 196.17 136.286C197.848 115.711 185.162 97.9571 167.908 96.5788C150.652 95.2004 135.252 110.713 133.575 131.288C133.15 136.498 133.639 141.629 134.981 146.434C135.092 146.83 134.861 147.24 134.465 147.35C134.07 147.461 133.659 147.23 133.549 146.834C132.159 141.86 131.653 136.552 132.092 131.167Z" fill="#1B3C87"/>
<path fill-rule="evenodd" clip-rule="evenodd" d="M165.573 125.635C165.817 123.37 166.847 121.623 167.872 121.733C168.898 121.844 169.53 123.771 169.285 126.036C169.04 128.3 168.01 130.048 166.985 129.936C165.961 129.825 165.328 127.899 165.573 125.635Z" fill="#1B3C87"/>
<path d="M150.749 127.365C150.842 126.965 151.241 126.716 151.641 126.809C152.041 126.902 152.291 127.301 152.198 127.701C151.316 131.504 148.914 135.593 146.174 137.756C145.851 138.011 145.384 137.956 145.129 137.634C144.875 137.311 144.93 136.843 145.252 136.589C147.712 134.647 149.939 130.854 150.749 127.365Z" fill="#1B3C87"/>
<path d="M161.773 144.885C159.305 144.885 157.304 146.886 157.304 149.354C157.305 151.822 159.305 153.823 161.773 153.823C164.242 153.823 166.242 151.822 166.242 149.354C166.242 146.886 164.242 144.885 161.773 144.885ZM161.773 146.372C163.42 146.372 164.755 147.707 164.755 149.354C164.755 151.001 163.42 152.336 161.773 152.336C160.127 152.335 158.792 151.001 158.792 149.354C158.792 147.707 160.127 146.372 161.773 146.372Z" fill="#1B3C87"/>
<path fill-rule="evenodd" clip-rule="evenodd" d="M189.202 139.007C186.952 138.846 180.496 129.634 187.119 123.301C183.869 120.135 164.751 105.824 141.781 114.699C138.797 111.665 130.652 99.4624 137.683 94.2014C144.714 88.9404 147.651 95.3024 148.561 97.8311C146.437 91.155 147.633 73.1973 165.514 72.9981C183.394 72.8001 202.618 125.043 201.841 134.418C201.064 143.793 201.025 145.06 189.202 139.007Z" fill="#EDCA55"/>
<path d="M188.103 96.6236C188.473 96.4451 188.917 96.6004 189.096 96.9703C195.543 110.336 200.436 125.879 200.012 130.992L199.887 132.485L199.848 132.926L199.817 133.265L199.792 133.525L199.767 133.776L199.742 134.017L199.718 134.249L199.687 134.527L199.668 134.687L199.655 134.792L199.63 134.995L199.604 135.191L199.584 135.333L199.571 135.426L199.551 135.562L199.53 135.694L199.51 135.823L199.496 135.907L199.474 136.03L199.445 136.19L199.423 136.306L199.4 136.419L199.377 136.53L199.353 136.638L199.328 136.744L199.303 136.848L199.286 136.916L199.269 136.983L199.243 137.082L199.224 137.147L199.206 137.211L199.187 137.275L199.169 137.338C199.124 137.483 199.077 137.622 199.026 137.756L198.992 137.843C198.571 138.902 197.94 139.565 197.004 139.834C195.405 140.294 193.185 139.603 188.399 137.242L188.068 137.078C188.013 137.05 187.957 137.022 187.9 136.994L187.558 136.823C187.5 136.794 187.442 136.765 187.383 136.735L187.028 136.556C186.968 136.525 186.908 136.495 186.848 136.464L186.48 136.277L186.406 136.239L186.38 136.234C184.785 135.924 182.635 133.283 181.592 130.316L181.56 130.222C180.942 128.419 180.737 126.568 181.03 124.795C181.328 122.999 182.127 121.336 183.456 119.869L183.482 119.842L183.369 119.744L183.269 119.658C183.252 119.643 183.235 119.629 183.218 119.614L183.113 119.526L183.006 119.436L182.895 119.345L182.782 119.253C182.763 119.238 182.744 119.222 182.724 119.207L182.607 119.113L182.487 119.018L182.365 118.921L182.24 118.824L182.113 118.726L181.984 118.627L181.852 118.527C181.829 118.511 181.807 118.494 181.785 118.477L181.65 118.376L181.512 118.275L181.373 118.173L181.231 118.07L181.088 117.967L180.943 117.863L180.796 117.759L180.647 117.655L180.429 117.504C178.419 116.121 176.136 114.793 173.664 113.619C167.214 110.557 160.233 108.875 153.003 109.116C152.593 109.129 152.249 108.807 152.235 108.397C152.221 107.986 152.543 107.643 152.954 107.629C160.439 107.38 167.65 109.117 174.302 112.275C176.848 113.484 179.199 114.852 181.272 116.279L181.414 116.377L181.555 116.475L181.694 116.573L181.832 116.67L181.968 116.767L182.103 116.864L182.302 117.009C182.324 117.025 182.346 117.041 182.368 117.057L182.562 117.201L182.689 117.296L182.815 117.391L182.938 117.485L183.06 117.578L183.18 117.671L183.298 117.763L183.471 117.899L183.584 117.989L183.695 118.078L183.803 118.166L183.962 118.297L184.064 118.383L184.165 118.467L184.263 118.551L184.359 118.633L184.452 118.714L184.543 118.794L184.631 118.873C184.646 118.886 184.66 118.899 184.674 118.912L184.758 118.988L184.84 119.064C184.853 119.076 184.867 119.088 184.88 119.101L184.957 119.174L185.032 119.245C185.044 119.257 185.056 119.269 185.068 119.281C185.37 119.574 185.367 120.06 185.063 120.351C182.336 122.958 181.784 126.289 182.967 129.74C183.439 131.118 184.173 132.419 184.998 133.413C185.366 133.855 185.734 134.214 186.067 134.459C186.094 134.48 186.122 134.5 186.149 134.518L186.201 134.554C186.21 134.56 186.219 134.565 186.227 134.571L186.277 134.603C186.45 134.709 186.588 134.766 186.673 134.776L186.685 134.777C186.784 134.784 186.882 134.811 186.971 134.857L187.316 135.033C187.373 135.062 187.43 135.091 187.486 135.12L187.82 135.289L188.146 135.453L188.465 135.613L188.776 135.768L189.08 135.918L189.377 136.063C189.425 136.087 189.474 136.111 189.522 136.134L189.808 136.273L190.087 136.406C190.454 136.582 190.802 136.745 191.134 136.896L191.379 137.008C194.2 138.281 195.705 138.66 196.592 138.405C197.316 138.197 197.731 137.462 198.047 135.503L198.073 135.335C198.078 135.306 198.082 135.277 198.086 135.248L198.112 135.071C198.125 134.981 198.138 134.888 198.15 134.793L198.175 134.601C198.179 134.568 198.183 134.535 198.187 134.502L198.211 134.3C198.219 134.231 198.227 134.161 198.235 134.091L198.259 133.876L198.283 133.654C198.294 133.541 198.306 133.426 198.317 133.308L198.34 133.07C198.344 133.029 198.348 132.988 198.352 132.947L198.375 132.698C198.379 132.656 198.382 132.614 198.386 132.571L198.53 130.869C198.627 129.697 198.381 127.753 197.836 125.265L197.774 124.986C197.732 124.799 197.688 124.609 197.643 124.416L197.574 124.124L197.503 123.828C197.284 122.934 197.034 121.984 196.753 120.987L196.658 120.653L196.561 120.316C196.332 119.524 196.084 118.705 195.819 117.863C193.797 111.439 190.954 104.246 187.756 97.6166C187.577 97.2467 187.733 96.8021 188.103 96.6236Z" fill="#1B3C87"/>
<path d="M162.935 68.7672C167.445 68.7171 172.138 71.7266 176.893 77.2876C177.16 77.5998 177.124 78.0692 176.812 78.3362C176.499 78.6031 176.03 78.5665 175.763 78.2543C171.266 72.9952 166.923 70.2105 162.952 70.2546C158.85 70.3004 155.508 71.3054 152.88 73.1455C150.557 74.7717 148.819 77.0349 147.651 79.7889C146.626 82.2048 146.071 84.9386 145.973 87.7015C145.887 90.1213 146.165 92.4378 146.7 94.1187C146.995 95.0468 145.62 95.5119 145.291 94.5951C144.614 92.7054 143.685 91.13 142.413 90.2106C140.672 88.9517 138.471 89.1307 135.558 91.3099C132.731 93.4253 132.402 96.9935 134.103 101.537C134.789 103.37 135.782 105.27 136.947 107.064L137.038 107.204L137.13 107.343L137.222 107.481L137.314 107.617L137.406 107.752C137.422 107.775 137.437 107.797 137.453 107.82L137.545 107.953L137.638 108.085L137.73 108.216C137.745 108.237 137.761 108.259 137.776 108.28L137.868 108.408L137.96 108.535L138.052 108.66L138.144 108.783L138.235 108.904C138.25 108.924 138.265 108.944 138.28 108.964L138.371 109.082L138.461 109.199C138.475 109.218 138.49 109.237 138.505 109.256L138.594 109.369L138.683 109.48C138.697 109.498 138.712 109.517 138.726 109.535L138.814 109.642L138.9 109.747L138.985 109.85L139.07 109.95L139.153 110.048C139.195 110.096 139.236 110.143 139.277 110.189L139.357 110.28C139.397 110.325 139.437 110.369 139.476 110.411L139.554 110.495L139.63 110.576C139.643 110.589 139.655 110.602 139.668 110.615L139.742 110.691C140.03 110.984 140.026 111.455 139.733 111.743C139.44 112.031 138.969 112.027 138.681 111.734C136.663 109.681 134.067 105.685 132.71 102.059C131.842 99.742 131.448 97.5743 131.627 95.6415C131.836 93.3776 132.828 91.495 134.667 90.1189C138.07 87.5731 140.977 87.3368 143.284 89.0051C143.715 89.3167 144.113 89.6871 144.481 90.1093L144.52 90.1534L144.517 90.1155C144.47 89.3478 144.458 88.5537 144.483 87.7495L144.486 87.6489C144.59 84.7123 145.182 81.8004 146.281 79.2081C147.554 76.2083 149.464 73.7214 152.026 71.9271C154.908 69.9092 158.543 68.8162 162.935 68.7672Z" fill="#1B3C87"/>
<path fill-rule="evenodd" clip-rule="evenodd" d="M184.094 143.457C184.094 138.934 187.761 135.266 192.285 135.266C196.809 135.266 200.476 138.934 200.476 143.457C200.476 147.981 196.809 151.648 192.285 151.648C187.761 151.648 184.094 147.981 184.094 143.457Z" fill="white"/>
<path d="M187.808 134.231C191.622 132.477 196.142 133.613 198.672 136.963C201.202 140.312 201.059 144.971 198.329 148.159C195.599 151.347 191.018 152.206 187.319 150.221C186.957 150.027 186.821 149.576 187.015 149.214C187.209 148.852 187.66 148.716 188.022 148.911C191.105 150.564 194.924 149.849 197.199 147.192C199.475 144.534 199.594 140.651 197.485 137.859C195.376 135.067 191.608 134.12 188.43 135.582C188.057 135.754 187.615 135.59 187.443 135.217C187.272 134.844 187.435 134.402 187.808 134.231Z" fill="#1B3C87"/>
</svg>
