<svg width="419" height="421" viewBox="0 0 419 421" fill="none" xmlns="http://www.w3.org/2000/svg">
<path opacity="0.15" fill-rule="evenodd" clip-rule="evenodd" d="M320.122 297.485C320.122 271.808 340.94 250.984 366.622 250.984C392.304 250.984 413.123 271.803 413.123 297.485C413.123 323.167 392.304 343.99 366.622 343.99C340.94 343.99 320.122 323.166 320.122 297.485Z" fill="white"/>
<path fill-rule="evenodd" clip-rule="evenodd" d="M71.8488 239.058C75.1295 236.029 86.6404 225.463 89.0228 224.386C91.4052 223.309 119.035 254.132 116.306 256.337C113.577 258.543 99.1343 271.843 93.7029 275.226C82.8535 263.417 75.3098 249.856 71.8488 239.058Z" fill="white" fill-opacity="0.9"/>
<path d="M87.2087 221.351C87.6379 221.157 88.0742 221.268 88.6049 221.56C88.793 221.663 88.9999 221.796 89.2263 221.957L89.3178 222.023C89.3487 222.045 89.3799 222.068 89.4115 222.092L89.5072 222.164C89.5233 222.176 89.5395 222.188 89.5558 222.201L89.6547 222.277L89.7557 222.357L89.8588 222.439L89.964 222.525L90.0559 222.601L90.1495 222.679L90.2447 222.759L90.3415 222.842L90.4897 222.97L90.6414 223.103L90.7968 223.241L90.9556 223.384L91.1178 223.532L91.2835 223.685L91.3959 223.789L91.5672 223.95L91.7418 224.116L91.9198 224.286L92.0402 224.402L92.2236 224.58L92.4101 224.763L92.5363 224.887L92.7281 225.077L92.9229 225.272L93.1209 225.471L93.3219 225.675L93.5259 225.882L93.7328 226.095L93.9069 226.274L94.0828 226.457L94.2603 226.642L94.4395 226.829L94.6202 227.019L94.8026 227.212L94.9864 227.407L95.265 227.704L95.4524 227.905L95.7362 228.21L95.927 228.417L96.1192 228.626L96.3125 228.837L96.507 229.049L96.7027 229.264L96.8995 229.481L97.0974 229.7L97.2963 229.921L97.5965 230.255L97.8988 230.594L98.1014 230.821L98.4068 231.166L98.6114 231.398L98.9197 231.748L99.126 231.984L99.4366 232.34L99.7485 232.699L100.062 233.061L100.376 233.425L100.69 233.792L100.901 234.039L101.217 234.41L101.428 234.658L101.639 234.908L101.956 235.283L102.167 235.535L102.484 235.914L102.695 236.167L102.906 236.421L103.223 236.803L103.539 237.186L103.859 237.575L104.076 237.84L104.401 238.237L104.723 238.634L105.042 239.029L105.359 239.422L105.568 239.683L105.777 239.944L105.984 240.204L106.292 240.592L106.496 240.85L106.799 241.235L107.099 241.618L107.396 241.998L107.592 242.251L107.883 242.627L108.075 242.876L108.36 243.248L108.548 243.494L108.734 243.739L108.918 243.983L109.101 244.225C109.131 244.265 109.161 244.306 109.192 244.346L109.372 244.586L109.55 244.824L109.726 245.061L109.987 245.414L110.158 245.647L110.328 245.878L110.495 246.107L110.661 246.335L110.824 246.561L110.985 246.785L111.144 247.008L111.301 247.228L111.456 247.447L111.609 247.663L111.759 247.877L111.907 248.09L112.052 248.3L112.196 248.508L112.337 248.714L112.475 248.918L112.611 249.12L112.745 249.319L112.916 249.576L113.02 249.734L113.122 249.889L113.223 250.043L113.321 250.196L113.418 250.346L113.514 250.495L113.607 250.643L113.699 250.788L113.789 250.932L113.877 251.074L113.963 251.215L114.048 251.353L114.13 251.49C114.144 251.513 114.158 251.536 114.171 251.558L114.291 251.759L114.368 251.891L114.443 252.021L114.517 252.149L114.589 252.276L114.659 252.4L114.727 252.523L114.794 252.644L114.858 252.764C114.869 252.783 114.879 252.803 114.89 252.822L114.951 252.939C114.962 252.958 114.972 252.977 114.982 252.997L115.041 253.11C115.05 253.129 115.06 253.148 115.069 253.167L115.125 253.278C115.135 253.296 115.144 253.314 115.153 253.332L115.206 253.441L115.257 253.547L115.307 253.652L115.354 253.754C115.362 253.771 115.37 253.788 115.377 253.805C115.66 254.428 115.837 254.953 115.902 255.39C115.993 255.993 115.884 256.502 115.467 256.838L115.411 256.884L115.289 256.985L115.177 257.08L115.08 257.162L114.923 257.298L114.721 257.476L114.465 257.703L114.29 257.86L113.986 258.134L113.739 258.359L113.238 258.817L112.565 259.436L111.737 260.202L107.022 264.586L106.226 265.323L105.046 266.413L104.513 266.903L104.071 267.309L103.764 267.591L103.311 268.005L102.723 268.541L102.292 268.932L101.871 269.313L101.459 269.684L101.057 270.046L100.664 270.397L100.281 270.739L99.9072 271.071L99.6631 271.286L99.3048 271.602L99.0711 271.806L98.7283 272.105L98.5049 272.299L98.1776 272.582L97.9645 272.764L97.7556 272.943L97.5507 273.117L97.35 273.286L97.1533 273.452C97.1209 273.479 97.0886 273.506 97.0565 273.533L96.866 273.691C96.8346 273.717 96.8033 273.743 96.7722 273.769L96.5878 273.921L96.4075 274.069C96.3778 274.093 96.3482 274.117 96.3188 274.141L96.1446 274.282C96.1159 274.305 96.0873 274.328 96.059 274.351L95.8908 274.485L95.7267 274.616L95.5666 274.741C95.5402 274.762 95.5141 274.782 95.4881 274.802L95.334 274.922C95.2833 274.96 95.2333 274.999 95.184 275.036L95.038 275.147L94.896 275.252C94.7327 275.373 94.5776 275.485 94.4306 275.588L94.3066 275.674C94.1643 275.772 94.0301 275.861 93.904 275.941C93.557 276.161 93.0975 276.058 92.8777 275.711C92.658 275.364 92.7611 274.904 93.1082 274.684C93.3452 274.534 93.6163 274.347 93.9214 274.123L94.0543 274.025C94.0768 274.008 94.0995 273.992 94.1223 273.974L94.2614 273.87C94.2849 273.852 94.3086 273.834 94.3325 273.815L94.4779 273.704C94.5024 273.685 94.5272 273.666 94.5521 273.646L94.7037 273.528L94.8595 273.405L95.0194 273.278L95.1834 273.146L95.3516 273.01L95.524 272.87L95.7005 272.725L95.8812 272.575L96.066 272.422C96.0971 272.396 96.1285 272.369 96.16 272.343L96.351 272.183L96.5462 272.018L96.7455 271.849L96.9489 271.675L97.1565 271.497L97.3683 271.315L97.6936 271.033L97.9157 270.84L98.1419 270.642L98.3722 270.44L98.7254 270.129L98.9661 269.917L99.3348 269.589L99.5858 269.366L99.9699 269.022L100.363 268.669L100.766 268.306L101.178 267.934L101.599 267.552L102.03 267.16L102.469 266.759L102.918 266.348L103.638 265.687L104.527 264.869L105.475 263.992L107.335 262.264L110.468 259.35L111.518 258.378L111.931 257.997L112.359 257.604L112.791 257.211L113.141 256.893L113.489 256.58L113.71 256.384L113.856 256.256L114.07 256.07L114.239 255.925L114.328 255.85L114.444 255.753L114.444 255.75C114.444 255.72 114.441 255.68 114.434 255.632L114.431 255.611C114.41 255.471 114.366 255.301 114.298 255.101L114.271 255.025C114.239 254.934 114.202 254.839 114.16 254.737L114.124 254.649C114.111 254.62 114.098 254.59 114.085 254.559L114.044 254.466C114.037 254.45 114.03 254.434 114.022 254.419L113.98 254.326C113.973 254.31 113.966 254.295 113.958 254.279L113.913 254.183L113.866 254.086L113.817 253.987L113.766 253.885L113.713 253.782L113.631 253.624L113.574 253.516L113.515 253.406L113.454 253.295C113.444 253.276 113.433 253.257 113.423 253.238L113.327 253.066L113.261 252.949L113.193 252.83L113.123 252.71L113.052 252.587L112.978 252.463L112.903 252.337L112.827 252.209L112.748 252.08L112.627 251.882L112.544 251.748L112.46 251.613L112.33 251.406L112.241 251.266L112.105 251.054L112.012 250.91L111.917 250.764L111.821 250.617L111.673 250.393L111.573 250.242L111.442 250.047L111.309 249.849L111.174 249.649L111.036 249.447L110.896 249.243L110.753 249.036L110.608 248.828L110.461 248.617L110.311 248.404L110.159 248.189L110.005 247.972L109.849 247.754L109.691 247.533L109.53 247.31L109.286 246.973L109.12 246.746L108.952 246.517L108.782 246.287L108.611 246.055L108.437 245.821L108.262 245.586L108.085 245.349L107.905 245.11L107.633 244.75L107.45 244.508L107.265 244.265L107.078 244.02L106.794 243.651L106.603 243.403L106.41 243.154L106.216 242.904L106.021 242.653L105.823 242.401L105.625 242.148L105.425 241.894L105.223 241.639L105.021 241.383L104.816 241.126L104.611 240.868L104.404 240.609L104.092 240.22L103.882 239.96L103.565 239.568L103.353 239.306L103.032 238.913L102.817 238.649L102.6 238.386L102.287 238.005L101.973 237.625L101.658 237.246L101.343 236.869L101.134 236.618L100.924 236.368L100.609 235.994L100.4 235.746L100.085 235.375L99.7718 235.007L99.563 234.763L99.2505 234.398L99.0426 234.157L98.8352 233.917L98.5249 233.558L98.2158 233.203L97.9081 232.851L97.7037 232.618L97.5 232.386L97.1958 232.042L96.9941 231.815L96.693 231.476L96.4933 231.253L96.1957 230.921L95.9002 230.594L95.6072 230.27L95.3167 229.952L95.1245 229.742L94.9335 229.534L94.6494 229.226L94.3683 228.923L94.1826 228.724L93.9983 228.528L93.8155 228.333L93.6342 228.141L93.4545 227.952L93.2764 227.765L93.0999 227.581L92.925 227.399L92.7519 227.22L92.5331 226.995L92.3361 226.793L92.142 226.596L91.9508 226.404L91.7627 226.215L91.6389 226.092L91.4559 225.911L91.276 225.734L91.1578 225.618L91.041 225.505L90.9256 225.394L90.7553 225.23L90.5882 225.072L90.4245 224.917L90.3172 224.817L90.159 224.671L90.0044 224.53L89.8531 224.393L89.7054 224.261L89.6089 224.176L89.514 224.093L89.4207 224.012L89.3291 223.933L89.239 223.857L89.1506 223.782C89.136 223.77 89.1215 223.758 89.107 223.746L89.0211 223.675L88.9345 223.605L88.8499 223.537L88.7674 223.472C88.7538 223.461 88.7403 223.45 88.7268 223.44L88.6473 223.378L88.5699 223.32L88.4945 223.263L88.4213 223.21C88.3973 223.193 88.3736 223.176 88.3502 223.159L88.2813 223.111L88.2146 223.065L88.1501 223.022C88.129 223.009 88.1082 222.995 88.0879 222.982L88.0279 222.945C87.9789 222.915 87.9322 222.888 87.888 222.863C87.8175 222.825 87.757 222.795 87.7085 222.775L87.6937 222.769L87.6623 222.786C87.5326 222.856 87.3794 222.949 87.2036 223.066L87.1138 223.126C87.0985 223.136 87.0831 223.146 87.0675 223.157L86.9721 223.223L86.873 223.292L86.7702 223.365L86.6638 223.442C86.6458 223.455 86.6276 223.468 86.6093 223.481L86.4975 223.563L86.3821 223.649L86.2631 223.738L86.1406 223.831L86.0147 223.927L85.8193 224.078L85.6847 224.183L85.5467 224.292C85.5234 224.31 85.5 224.329 85.4765 224.347L85.3335 224.461L85.1871 224.578L84.9614 224.76L84.7284 224.949L84.569 225.079L84.4065 225.213L84.1567 225.419L83.8999 225.632L83.6362 225.853L83.3656 226.08L83.0883 226.315L82.8043 226.556L82.5138 226.804L82.1164 227.145L81.7077 227.498L81.3939 227.77L81.074 228.049L80.8573 228.238L80.638 228.43L80.1916 228.822L79.9572 229.029C79.6226 229.324 79.2906 229.618 78.9597 229.912L78.4507 230.365L78.0368 230.735L77.4148 231.292L76.7893 231.856L76.1579 232.427L75.5183 233.007L74.7585 233.699L74.0929 234.307L73.2962 235.038L72.3547 235.904L71.249 236.923C70.9472 237.202 70.4767 237.183 70.198 236.881C69.9194 236.579 69.9382 236.109 70.24 235.83L71.3201 234.834L72.3536 233.884L73.13 233.172L73.7793 232.579L74.416 231.999L74.7304 231.713L75.4552 231.056L75.9672 230.594L76.3742 230.228L76.6785 229.955L76.8776 229.776C77.0767 229.598 77.2755 229.42 77.4743 229.243L77.6733 229.065C78.1044 228.681 78.5365 228.298 78.9732 227.913L79.3498 227.581L79.719 227.257L80.0806 226.941L80.4345 226.633L80.7808 226.332L81.1194 226.04L81.4502 225.755L81.7731 225.479L82.0883 225.211L82.294 225.037L82.4961 224.866L82.6947 224.699L82.986 224.456L83.1757 224.298L83.3619 224.144L83.6343 223.92L83.8114 223.776L83.9848 223.635L84.1546 223.498L84.3208 223.365L84.4832 223.236L84.642 223.111L84.7971 222.989L84.9484 222.872L85.096 222.758L85.2399 222.649L85.38 222.543L85.5163 222.441C85.5387 222.425 85.561 222.408 85.5831 222.392L85.7137 222.296C85.7352 222.28 85.7565 222.265 85.7776 222.25L85.9025 222.16L86.0236 222.074C86.5202 221.726 86.9167 221.483 87.2087 221.351Z" fill="#1B3C87"/>
<path fill-rule="evenodd" clip-rule="evenodd" d="M143.423 204.242C159.255 228.321 120.373 258.539 114.421 260.275C108.47 262.011 82.8437 226.903 84.6993 222.28C86.5549 217.656 124.304 175.165 143.423 204.242Z" fill="#46DBC9"/>
<path d="M122.907 190.75C130.525 190.304 137.001 193.615 141.952 201.144C145.798 206.994 146.71 213.486 145.038 220.397C143.607 226.309 140.317 232.393 135.583 238.407C131.677 243.37 126.915 248.107 122.067 252.06L121.946 252.159L121.704 252.355C121.422 252.582 121.142 252.805 120.864 253.023L120.626 253.209C120.429 253.363 120.232 253.514 120.037 253.663L119.804 253.84C119.727 253.899 119.65 253.957 119.573 254.015L119.343 254.187C119.037 254.415 118.736 254.635 118.44 254.848L118.22 255.006C118.183 255.032 118.146 255.058 118.11 255.084L117.892 255.238C117.459 255.543 117.039 255.829 116.635 256.096L116.435 256.228L116.237 256.356C114.666 257.37 113.369 258.056 112.537 258.299C110.748 258.821 108.033 257.1 104.395 253.564C104.145 253.321 103.892 253.071 103.636 252.812L103.443 252.617C103.281 252.453 103.119 252.286 102.955 252.117L102.758 251.911L102.56 251.703L102.36 251.493L102.16 251.279L101.958 251.064L101.756 250.845C101.688 250.772 101.62 250.698 101.552 250.624L101.348 250.4C101.314 250.363 101.28 250.325 101.246 250.287L101.04 250.06L100.833 249.83C100.799 249.792 100.764 249.753 100.73 249.714L100.522 249.481C100.487 249.442 100.452 249.403 100.418 249.364L100.209 249.127L99.9988 248.888C99.9638 248.848 99.9288 248.807 99.8937 248.767L99.6829 248.525C99.6477 248.484 99.6125 248.443 99.5773 248.403L99.3655 248.157C99.3301 248.116 99.2947 248.074 99.2593 248.033L99.0466 247.784L98.8333 247.533L98.6195 247.28L98.4051 247.025L98.1903 246.768L97.975 246.509C97.9391 246.466 97.9031 246.423 97.8672 246.379L97.6512 246.117C97.6152 246.074 97.5792 246.03 97.5431 245.986L97.3267 245.721L97.1098 245.455L96.8927 245.187C96.8565 245.142 96.8203 245.098 96.7841 245.053L96.5665 244.782L96.3488 244.51L96.1309 244.236C96.0945 244.191 96.0582 244.145 96.0218 244.099L95.8036 243.823C95.7673 243.777 95.7309 243.731 95.6945 243.684L95.4761 243.406L95.2577 243.126L95.0392 242.845C95.0028 242.798 94.9664 242.751 94.93 242.704L94.7115 242.421L94.493 242.136L94.2746 241.851C94.2382 241.803 94.2018 241.755 94.1655 241.707L93.9472 241.42L93.737 241.141C93.702 241.095 93.667 241.049 93.6321 241.002L93.423 240.723L93.2146 240.444L93.0071 240.165C92.9726 240.119 92.9381 240.072 92.9036 240.025L92.6974 239.746C92.6631 239.699 92.6288 239.653 92.5946 239.606L92.3897 239.327L92.1857 239.047L91.9827 238.768L91.7808 238.489L91.5798 238.209L91.38 237.931L91.1813 237.652C91.1482 237.605 91.1153 237.559 91.0823 237.513L90.8853 237.234L90.6895 236.957L90.495 236.679L90.3017 236.402L90.1097 236.126L89.919 235.85L89.7297 235.575L89.5418 235.3L89.3554 235.027L89.1704 234.753L88.9869 234.481L88.8049 234.21L88.6245 233.94C88.5946 233.895 88.5647 233.85 88.5349 233.805L88.357 233.536L88.1806 233.268L88.006 233.001L87.8331 232.735L87.6619 232.471C87.6335 232.427 87.6052 232.383 87.577 232.339L87.4085 232.077L87.2419 231.815C87.2143 231.772 87.1867 231.729 87.1592 231.685L86.9954 231.426C86.9683 231.383 86.9412 231.34 86.9142 231.297L86.7533 231.04L86.5943 230.785L86.4374 230.531L86.2825 230.278L86.1296 230.028L85.9789 229.779L85.8303 229.532L85.6839 229.286L85.5396 229.043L85.3977 228.801C85.3742 228.761 85.3508 228.721 85.3275 228.681L85.189 228.442L85.0527 228.206L84.9109 227.957L84.7641 227.698C82.4177 223.53 81.3643 220.689 81.9176 219.312C81.9827 219.151 82.0802 218.958 82.2075 218.737L82.2601 218.647L82.3157 218.554C82.3253 218.538 82.3349 218.523 82.3447 218.507L82.4051 218.41C82.4154 218.393 82.4258 218.377 82.4364 218.36L82.5013 218.259L82.5692 218.155C82.5807 218.138 82.5924 218.12 82.6042 218.102L82.6765 217.994C82.7011 217.958 82.7262 217.921 82.7518 217.884L82.8299 217.771L82.9108 217.655L82.9945 217.537C83.0087 217.517 83.023 217.497 83.0374 217.477L83.1253 217.356C83.1402 217.335 83.1551 217.315 83.1702 217.294L83.2621 217.169L83.3567 217.042L83.4539 216.913L83.5536 216.781L83.6559 216.647L83.7607 216.512L83.8679 216.374L83.9776 216.234L84.0897 216.093L84.2041 215.95L84.3208 215.804L84.4398 215.657L84.5611 215.509L84.6846 215.359C84.7053 215.333 84.7262 215.308 84.7471 215.283L84.8739 215.13L85.0027 214.976L85.1336 214.821L85.2666 214.664L85.4015 214.505L85.5385 214.346L85.6773 214.185C85.7006 214.158 85.724 214.131 85.7475 214.104L85.8891 213.941L86.0327 213.777L86.178 213.612L86.3251 213.446L86.4739 213.279L86.6244 213.111L86.7766 212.942C87.052 212.637 87.5223 212.613 87.8271 212.889C88.1318 213.164 88.1557 213.634 87.8803 213.939L87.7352 214.1L87.5916 214.26L87.4496 214.42L87.3092 214.578L87.1705 214.736L86.9656 214.97L86.8312 215.125L86.6987 215.278L86.5679 215.431L86.3753 215.657L86.2494 215.806L86.1254 215.953L85.9432 216.172L85.7657 216.387L85.6501 216.528L85.5366 216.668L85.4254 216.805L85.3164 216.941L85.2097 217.075L85.1054 217.207L85.0034 217.337L84.9039 217.465L84.8068 217.59L84.7122 217.714L84.6202 217.835L84.5308 217.954C84.5161 217.974 84.5015 217.993 84.487 218.013L84.4015 218.128L84.3187 218.241L84.2386 218.351L84.1613 218.459C84.1487 218.477 84.1361 218.494 84.1237 218.512L84.0506 218.616L83.9804 218.717L83.913 218.815C83.902 218.831 83.8912 218.847 83.8805 218.863L83.8175 218.957L83.7576 219.048C83.7479 219.063 83.7383 219.078 83.7288 219.093L83.6735 219.179C83.4943 219.463 83.3668 219.696 83.2977 219.867C83.2674 219.942 83.2519 220.047 83.2518 220.177L83.2523 220.222L83.2539 220.269C83.2543 220.276 83.2547 220.284 83.2552 220.293L83.2586 220.342L83.2631 220.394C83.2648 220.411 83.2667 220.429 83.2688 220.447L83.2756 220.502L83.2836 220.559L83.2928 220.618C83.2945 220.628 83.2962 220.638 83.2979 220.648L83.3088 220.71L83.321 220.774C83.3252 220.795 83.3297 220.817 83.3343 220.839L83.3489 220.906L83.3646 220.975L83.3816 221.046L83.3997 221.118L83.4191 221.192L83.4397 221.268C83.4432 221.281 83.4468 221.294 83.4505 221.307L83.4729 221.385L83.4966 221.465L83.5215 221.547L83.5476 221.631L83.5751 221.716C83.5797 221.73 83.5844 221.744 83.5892 221.759L83.6185 221.846L83.6491 221.935L83.6809 222.026L83.714 222.118L83.7483 222.211L83.784 222.306L83.826 222.416L83.8747 222.541C83.883 222.562 83.8914 222.583 83.8998 222.604L83.9514 222.732L84.0049 222.862L84.0602 222.993L84.1174 223.127L84.1764 223.263L84.2372 223.401L84.2999 223.541C84.3105 223.564 84.3212 223.588 84.3319 223.611L84.3973 223.754L84.4646 223.899C84.4759 223.923 84.4873 223.947 84.4988 223.972L84.5687 224.119L84.6404 224.269L84.7139 224.42L84.7891 224.573L84.8661 224.728L84.9448 224.885C84.958 224.911 84.9714 224.937 84.9848 224.964L85.0661 225.123L85.1492 225.284L85.234 225.447L85.3204 225.612L85.4086 225.778L85.4985 225.946L85.6365 226.202L85.7305 226.374L85.8262 226.548L85.9236 226.724L86.0226 226.901L86.1233 227.08L86.2256 227.26L86.2773 227.351C86.3213 227.428 86.3656 227.505 86.4103 227.583L86.5457 227.817C86.5912 227.895 86.637 227.974 86.6833 228.053L86.8232 228.291L86.9654 228.531L87.1097 228.773C87.134 228.813 87.1583 228.854 87.1827 228.895L87.3303 229.139C87.3551 229.18 87.38 229.221 87.4049 229.262L87.5557 229.509L87.7085 229.758C87.7598 229.841 87.8115 229.925 87.8634 230.009L88.0203 230.261L88.1791 230.514L88.3399 230.769L88.5026 231.026L88.6671 231.284L88.8335 231.543L89.0017 231.804C89.0299 231.847 89.0581 231.891 89.0865 231.934L89.2573 232.197L89.4298 232.46C89.4587 232.504 89.4877 232.548 89.5167 232.593L89.6918 232.858C89.7211 232.902 89.7505 232.946 89.7799 232.991L89.9574 233.257L90.1365 233.525L90.3171 233.794L90.4992 234.063L90.6828 234.333L90.8679 234.604L91.0544 234.876C91.0856 234.921 91.1168 234.967 91.1481 235.012L91.3367 235.285L91.5265 235.558L91.7177 235.832L91.9101 236.106L92.1038 236.381L92.2986 236.656L92.4946 236.932L92.6917 237.208L92.89 237.484L93.0893 237.76L93.2896 238.036L93.4909 238.313C93.5245 238.359 93.5582 238.405 93.5919 238.451L93.7947 238.727C93.8285 238.774 93.8624 238.82 93.8964 238.866L94.1005 239.142L94.3054 239.418L94.5112 239.695C94.5456 239.741 94.5799 239.787 94.6144 239.833L94.8213 240.109L95.029 240.384L95.241 240.664L95.4568 240.948C95.4927 240.995 95.5287 241.042 95.5647 241.089L95.7806 241.371L95.9965 241.652L96.2124 241.931C96.2484 241.977 96.2844 242.024 96.3204 242.07L96.5362 242.347L96.752 242.623L96.9677 242.897C97.0036 242.942 97.0396 242.988 97.0755 243.033L97.2909 243.305C97.3268 243.35 97.3627 243.396 97.3986 243.441L97.6138 243.71L97.8287 243.978L98.0434 244.245L98.2578 244.509L98.4719 244.772L98.6856 245.033L98.899 245.292C98.9345 245.336 98.97 245.379 99.0055 245.421L99.2182 245.678L99.4304 245.933L99.6422 246.185L99.8534 246.436L100.064 246.685L100.274 246.931C100.309 246.972 100.344 247.013 100.379 247.054L100.588 247.297L100.797 247.539L101.004 247.778L101.212 248.015L101.418 248.249L101.623 248.482L101.828 248.712C101.862 248.75 101.896 248.788 101.93 248.826L102.134 249.052L102.336 249.276C102.404 249.35 102.471 249.424 102.538 249.498L102.739 249.716C102.805 249.789 102.872 249.861 102.938 249.933L103.137 250.147C103.203 250.218 103.269 250.288 103.335 250.358L103.531 250.567C103.629 250.67 103.727 250.773 103.824 250.874L104.018 251.076C104.082 251.143 104.146 251.209 104.21 251.275L104.402 251.471C104.497 251.568 104.592 251.665 104.687 251.76L104.875 251.949C105.062 252.136 105.248 252.319 105.431 252.497L105.578 252.639L105.724 252.779C105.748 252.802 105.772 252.825 105.796 252.848L105.94 252.985L106.084 253.12L106.226 253.252L106.366 253.383C106.39 253.404 106.413 253.426 106.436 253.447L106.576 253.574L106.714 253.699L106.851 253.821C106.873 253.842 106.896 253.862 106.919 253.882L107.054 254.001C107.099 254.041 107.144 254.08 107.188 254.118L107.321 254.233L107.453 254.346L107.583 254.456C107.648 254.511 107.713 254.565 107.777 254.617L107.904 254.722L108.031 254.824L108.156 254.925C108.197 254.958 108.238 254.99 108.279 255.022L108.402 255.118C108.422 255.134 108.443 255.149 108.463 255.165L108.584 255.257L108.703 255.346C108.723 255.361 108.742 255.376 108.762 255.39L108.88 255.476C108.958 255.533 109.035 255.588 109.111 255.641L109.224 255.72L109.336 255.797C109.355 255.81 109.374 255.822 109.392 255.834L109.502 255.907C109.557 255.943 109.611 255.978 109.665 256.012L109.71 256.041L109.799 256.096C109.814 256.105 109.828 256.114 109.843 256.123L109.93 256.175L110.016 256.226L110.101 256.275C110.115 256.283 110.128 256.291 110.142 256.298L110.225 256.344C110.239 256.352 110.252 256.359 110.266 256.367L110.347 256.41L110.426 256.451C110.453 256.464 110.479 256.478 110.505 256.49L110.581 256.528L110.657 256.564L110.731 256.598C110.743 256.603 110.756 256.609 110.768 256.614L110.84 256.646C110.864 256.656 110.887 256.665 110.911 256.675L110.98 256.703C111.026 256.72 111.071 256.737 111.115 256.753L111.18 256.775C111.191 256.778 111.202 256.782 111.212 256.785L111.275 256.805L111.337 256.823C111.662 256.913 111.926 256.928 112.12 256.871C112.566 256.741 113.204 256.439 113.984 255.993L114.142 255.902C114.568 255.654 115.033 255.366 115.53 255.043L115.718 254.919L115.909 254.793C115.973 254.75 116.038 254.707 116.103 254.664L116.299 254.531L116.498 254.395C116.598 254.326 116.7 254.256 116.802 254.185L117.007 254.042L117.214 253.895L117.424 253.746C117.494 253.695 117.565 253.645 117.636 253.593L117.85 253.438C117.886 253.412 117.922 253.386 117.958 253.36L118.174 253.201C118.247 253.147 118.32 253.093 118.393 253.039L118.614 252.874L118.836 252.707C119.021 252.567 119.209 252.424 119.397 252.279L119.625 252.103C119.966 251.838 120.312 251.565 120.661 251.285L120.894 251.097L121.127 250.907C125.894 247.02 130.579 242.36 134.414 237.487C139.026 231.628 142.217 225.726 143.592 220.047C145.172 213.521 144.319 207.451 140.709 201.961C136.048 194.873 130.077 191.821 122.994 192.235C116.951 192.588 110.238 195.463 103.269 200.297C102.932 200.531 102.469 200.447 102.234 200.11C102 199.772 102.084 199.309 102.422 199.075C109.594 194.099 116.546 191.122 122.907 190.75Z" fill="#1B3C87"/>
<path fill-rule="evenodd" clip-rule="evenodd" d="M175.233 183.82C157.401 183.713 139.854 187.144 131.206 193.863C117.163 204.775 107.822 272.231 111.85 292.306C131.142 306.447 154.941 314.802 180.694 314.802C201.024 314.802 220.135 309.592 236.776 300.444C239.722 275.379 232.461 203.725 220.976 195.008C211.185 187.574 193.066 183.927 175.233 183.82Z" fill="#46DBC9"/>
<path d="M172.622 180.462C191.844 180.577 209.398 184.654 218.81 191.799C221.893 194.14 224.727 200.571 227.291 210.4C229.595 219.235 231.608 230.612 233.119 243.013C236.132 267.731 236.681 292.28 234.234 302.067C234.135 302.465 233.731 302.707 233.332 302.608C232.941 302.51 232.7 302.119 232.786 301.727L232.791 301.706C235.18 292.15 234.634 267.738 231.643 243.193C228.435 216.869 223.266 197.049 217.911 192.983C208.806 186.072 191.543 182.063 172.613 181.949C154.024 181.837 137.169 185.525 129.047 191.835C124.244 195.566 119.717 206.699 116.054 222.779C115.963 223.18 115.564 223.43 115.163 223.339C114.763 223.248 114.512 222.849 114.603 222.449C118.343 206.03 122.959 194.681 128.135 190.66C136.493 184.167 153.388 180.424 172.056 180.459L172.622 180.462Z" fill="#1B3C87"/>
<path d="M108.302 266.912C108.328 266.502 108.682 266.191 109.091 266.217C109.501 266.242 109.813 266.596 109.787 267.006C109.168 276.826 109.246 284.96 110.029 289.906C110.093 290.312 109.816 290.692 109.41 290.757C109.005 290.821 108.624 290.544 108.559 290.138C107.756 285.062 107.677 276.832 108.302 266.912Z" fill="#1B3C87"/>
<path opacity="0.15" d="M28.9313 0.528881L6.07913 61.0656C5.93408 61.4498 6.12798 61.8789 6.51223 62.024L59.7711 82.1331C60.1554 82.2782 60.5845 82.0843 60.7296 81.7001L83.5893 21.1642C83.7344 20.7799 83.5405 20.3508 83.1562 20.2057L29.8898 0.0957446C29.5055 -0.049338 29.0764 0.144586 28.9313 0.528881ZM30.0602 1.75001L81.935 21.3346L59.6008 80.4788L7.73349 60.895L30.0602 1.75001Z" fill="white"/>
<path opacity="0.15" d="M352.473 294.463L268.312 315.68C267.952 315.771 267.714 316.113 267.755 316.482L279.07 419.384C279.149 420.096 280.089 420.297 280.451 419.68L353.296 295.561C353.63 294.992 353.113 294.302 352.473 294.463ZM351.114 296.34L280.304 416.992L269.304 316.964L351.114 296.34Z" fill="white"/>
<path opacity="0.15" d="M59.3292 54.3362C41.6344 54.3362 27.2904 68.6799 27.2904 86.3749C27.2904 104.07 41.6327 118.414 59.3267 118.414C77.0212 118.414 91.3655 104.069 91.3655 86.3749C91.3655 68.68 77.0232 54.3362 59.3292 54.3362ZM59.3292 55.8236C76.2017 55.8236 89.878 69.5015 89.878 86.3749C89.878 103.248 76.1997 116.926 59.3267 116.926C42.4542 116.926 28.7779 103.248 28.7779 86.3749C28.7779 69.5014 42.4559 55.8236 59.3292 55.8236Z" fill="white"/>
<path fill-rule="evenodd" clip-rule="evenodd" d="M250.172 292.884C247.687 290.399 230.56 267.04 228.631 264.841C226.701 262.643 263.318 232.279 265.57 234.934C267.822 237.589 276.85 250.224 281.06 257.171C277.677 263.268 258.971 286.878 250.172 292.884Z" fill="white" fill-opacity="0.9"/>
<path d="M250.403 291.473L241.94 279.871L239.596 276.662L238.38 275.001L236.944 273.044L235.763 271.436L234.502 269.724L233.479 268.337L232.929 267.592L232.403 266.883L231.904 266.21L231.317 265.421L230.984 264.975L230.564 264.413L230.172 263.89L229.986 263.643L229.635 263.178L229.39 262.855L229.162 262.554L228.949 262.276L228.753 262.021L228.573 261.789L228.463 261.647L228.359 261.516L228.264 261.395L228.176 261.285L228.095 261.185L228.022 261.096L227.957 261.018L227.9 260.95C227.891 260.94 227.882 260.93 227.874 260.92C227.663 260.68 227.59 260.379 227.623 260.066C227.646 259.849 227.718 259.626 227.833 259.383C227.993 259.046 228.248 258.651 228.596 258.193L228.671 258.094L228.75 257.993L228.826 257.898L228.898 257.809C228.922 257.779 228.946 257.748 228.971 257.718L229.048 257.626L229.126 257.532L229.206 257.436L229.33 257.291L229.416 257.192L229.504 257.091L229.593 256.989L229.732 256.833L229.875 256.675L229.973 256.567L230.073 256.458L230.226 256.291L230.331 256.179L230.493 256.007L230.658 255.833L230.771 255.715L230.944 255.535L231.062 255.414L231.182 255.291L231.304 255.167L231.427 255.041L231.616 254.851L231.81 254.657L231.941 254.526L232.074 254.394L232.346 254.127L232.555 253.923L232.745 253.738L232.939 253.55L233.136 253.361L233.335 253.17L233.538 252.977L233.744 252.782L233.952 252.586L234.269 252.288L234.484 252.087L234.702 251.885L234.923 251.681L235.145 251.476L235.371 251.269L235.599 251.06L235.945 250.745L236.178 250.534L236.533 250.214L236.772 249.999L237.014 249.783L237.257 249.565L237.503 249.347L237.75 249.128L238 248.907L238.251 248.686L238.504 248.464L238.759 248.241L239.145 247.904L239.534 247.566L239.796 247.34L240.059 247.113L240.324 246.886L240.59 246.658L240.992 246.315L241.261 246.085L241.532 245.855L241.804 245.625L242.077 245.395L242.489 245.048L242.904 244.702L243.181 244.47L243.599 244.123L243.878 243.891L244.159 243.659L244.44 243.428L244.722 243.196L245.151 242.845L245.583 242.493L245.87 242.26L246.156 242.027L246.443 241.796L246.728 241.566L247.014 241.337L247.298 241.109L247.724 240.77L248.147 240.433L248.429 240.21L248.71 239.989L248.989 239.769L249.407 239.442L249.823 239.118L250.236 238.797L250.647 238.48L250.919 238.271L251.325 237.96L251.594 237.755L251.861 237.552L252.26 237.25L252.524 237.051L252.916 236.757C252.96 236.724 253.003 236.692 253.047 236.66L253.306 236.467L253.563 236.276L253.819 236.087L254.073 235.9L254.45 235.624L254.699 235.442L254.947 235.263L255.192 235.086L255.435 234.911L255.676 234.739L255.915 234.569C255.955 234.541 255.995 234.513 256.034 234.485L256.27 234.318L256.503 234.154L256.735 233.992L256.964 233.833L257.19 233.677L257.414 233.523L257.636 233.371L257.855 233.223L258.125 233.041L258.285 232.934L258.522 232.777L258.678 232.674L258.832 232.572L259.06 232.423L259.211 232.326L259.359 232.23L259.507 232.136L259.652 232.044L259.796 231.953L260.009 231.82L260.218 231.691L260.355 231.607L260.49 231.524L260.624 231.443L260.822 231.325L260.952 231.249L261.079 231.174L261.206 231.101L261.33 231.03L261.453 230.96L261.574 230.892L261.693 230.826C261.713 230.815 261.733 230.804 261.752 230.793L261.869 230.73L261.984 230.668L262.097 230.608C262.116 230.598 262.135 230.588 262.153 230.578L262.264 230.521L262.372 230.465L262.479 230.411L262.584 230.359L262.688 230.309C262.705 230.3 262.722 230.292 262.739 230.284C263.407 229.965 263.964 229.757 264.422 229.667C265.057 229.542 265.584 229.621 265.94 230.041L266.019 230.135C266.033 230.152 266.046 230.168 266.06 230.185L266.147 230.29L266.238 230.401L266.334 230.52L266.435 230.646L266.54 230.778L266.706 230.988L266.822 231.136L266.942 231.29L267.066 231.45L267.26 231.701L267.393 231.875L267.6 232.146L267.743 232.333L267.962 232.624L268.266 233.028L268.502 233.343L268.662 233.558L268.908 233.888L269.159 234.228L269.415 234.575L269.765 235.05L270.121 235.538L270.485 236.037L270.761 236.418L271.134 236.934L271.416 237.327L271.701 237.723L271.987 238.123L272.178 238.391L272.562 238.931L272.85 239.338L273.139 239.747L273.427 240.156L273.619 240.43L273.81 240.703C273.891 240.818 273.971 240.934 274.051 241.049L274.291 241.393L274.646 241.905L274.88 242.245L275.113 242.582L275.343 242.917C275.381 242.973 275.419 243.029 275.457 243.084L275.684 243.416L275.909 243.747L276.242 244.238L276.462 244.562L276.786 245.045L276.999 245.363L277.21 245.679L277.419 245.993L277.625 246.304L277.828 246.613L278.029 246.919L278.227 247.222L278.423 247.523L278.616 247.82C278.648 247.87 278.68 247.919 278.711 247.968L278.9 248.262L279.087 248.552L279.27 248.84L279.45 249.124L279.628 249.406L279.803 249.684L279.975 249.959C280.003 250.005 280.031 250.051 280.059 250.096L280.227 250.366L280.391 250.633L280.552 250.897C280.632 251.028 280.711 251.158 280.788 251.286L280.941 251.541L281.092 251.793L281.238 252.041L281.382 252.286C281.429 252.367 281.476 252.447 281.522 252.527L281.659 252.764C281.952 253.273 282.222 253.756 282.465 254.211L282.576 254.418C282.648 254.555 282.718 254.69 282.786 254.821C282.974 255.186 282.83 255.635 282.465 255.823C282.1 256.011 281.651 255.867 281.463 255.501C281.381 255.341 281.294 255.176 281.204 255.007L281.094 254.801L280.98 254.592C280.922 254.486 280.863 254.379 280.802 254.27L280.68 254.05L280.554 253.827C280.511 253.751 280.468 253.676 280.424 253.599L280.291 253.368C280.268 253.329 280.246 253.29 280.223 253.251L280.085 253.014L279.943 252.773L279.798 252.529L279.65 252.281C279.575 252.156 279.499 252.03 279.422 251.902L279.266 251.645C279.24 251.602 279.214 251.559 279.187 251.516L279.026 251.254L278.863 250.988L278.696 250.72L278.526 250.448C278.497 250.402 278.469 250.357 278.44 250.311L278.266 250.034L278.089 249.754C278.059 249.708 278.029 249.661 277.999 249.613L277.818 249.329L277.633 249.042L277.446 248.751L277.257 248.458L277.064 248.162L276.869 247.864L276.672 247.562C276.639 247.512 276.605 247.461 276.572 247.41L276.371 247.105L276.167 246.797L275.96 246.486L275.751 246.173L275.54 245.857L275.326 245.539L275.11 245.219L274.892 244.896L274.671 244.571L274.448 244.244L274.223 243.915L273.996 243.584L273.652 243.083L273.419 242.747L273.185 242.408L272.949 242.068L272.591 241.555L272.314 241.16L272.037 240.766L271.76 240.372L271.482 239.98L271.205 239.589L270.928 239.2L270.652 238.813L270.377 238.43L270.014 237.924L269.743 237.55L269.476 237.179L269.036 236.574L268.691 236.101L268.352 235.64L267.941 235.081L267.621 234.65L267.311 234.234L267.011 233.834L266.866 233.64L266.653 233.358L266.38 232.998L266.12 232.658L265.995 232.496L265.874 232.339L265.699 232.114L265.587 231.971L265.48 231.834L265.376 231.703L265.277 231.579L265.181 231.46L265.091 231.348L265.004 231.242L264.923 231.143L264.889 231.102L264.884 231.102C264.845 231.105 264.794 231.111 264.733 231.122L264.709 231.126C264.608 231.146 264.492 231.177 264.363 231.219L264.291 231.243L264.216 231.27C264.204 231.274 264.191 231.279 264.178 231.284L264.1 231.313L264.019 231.345L263.935 231.378C263.893 231.396 263.849 231.414 263.805 231.433L263.715 231.472C263.7 231.479 263.684 231.486 263.669 231.493L263.575 231.535L263.479 231.579L263.381 231.626L263.286 231.672L263.19 231.719C263.173 231.727 263.157 231.735 263.141 231.744L263.041 231.794L262.889 231.872L262.785 231.926L262.68 231.983L262.572 232.04L262.463 232.1L262.352 232.161L262.239 232.224L262.125 232.289L262.008 232.355L261.89 232.423L261.771 232.493L261.649 232.564L261.526 232.637L261.401 232.712L261.211 232.827L261.016 232.946L260.885 233.027L260.684 233.152L260.48 233.28L260.272 233.412L260.131 233.502L259.989 233.594L259.773 233.734L259.553 233.878L259.33 234.025L259.179 234.126L258.95 234.279L258.795 234.383L258.58 234.528L258.362 234.677L258.142 234.828L257.919 234.981L257.694 235.137L257.466 235.296L257.236 235.457L257.004 235.621L256.651 235.87L256.414 236.04L256.174 236.212L255.932 236.386L255.688 236.563L255.442 236.741L255.194 236.922L254.944 237.105L254.693 237.29L254.44 237.478L254.184 237.667L253.928 237.858L253.539 238.149L253.278 238.345L253.016 238.543L252.752 238.743L252.487 238.944L252.086 239.25L251.817 239.456L251.412 239.768L251.004 240.084L250.593 240.403L250.18 240.726L249.903 240.943L249.486 241.271L249.207 241.492L248.927 241.714L248.646 241.937L248.365 242.161L247.941 242.5L247.658 242.727L247.232 243.07L246.806 243.416L246.52 243.648L246.092 243.997L245.806 244.231L245.525 244.461L245.246 244.691L244.967 244.921L244.689 245.151L244.411 245.382L244.135 245.612L243.722 245.956L243.448 246.186L243.039 246.53L242.767 246.759L242.497 246.987L242.228 247.216L241.96 247.443L241.694 247.671L241.429 247.897L241.034 248.237L240.773 248.462L240.513 248.686L240.255 248.91L239.998 249.133L239.617 249.467L239.239 249.798L238.99 250.017L238.742 250.236L238.497 250.454L238.132 250.778L237.772 251.1L237.535 251.313L237.183 251.631C237.144 251.666 237.105 251.701 237.067 251.736L236.722 252.049L236.495 252.257L236.27 252.462L236.048 252.667L235.828 252.87L235.611 253.071L235.397 253.271L235.185 253.469L234.976 253.665L234.769 253.859L234.566 254.052L234.266 254.338L234.07 254.526L233.877 254.713L233.687 254.897L233.525 255.054L233.326 255.249L233.131 255.442L233.003 255.568L232.752 255.818L232.63 255.941L232.45 256.123L232.332 256.243L232.159 256.42L232.045 256.536L231.879 256.708L231.718 256.877L231.56 257.043L231.407 257.206L231.308 257.313L231.21 257.419L231.114 257.523L231.021 257.625L230.929 257.726L230.795 257.875L230.709 257.973L230.624 258.069L230.542 258.164L230.461 258.257L230.383 258.348L230.269 258.483L230.196 258.571L230.125 258.657L230.056 258.742L229.989 258.825L229.923 258.909L229.857 258.993L229.794 259.074L229.734 259.154L229.676 259.232L229.621 259.307L229.569 259.381L229.519 259.453L229.472 259.522C229.464 259.533 229.456 259.545 229.449 259.556L229.406 259.622C229.391 259.644 229.378 259.665 229.365 259.686L229.327 259.747C229.308 259.778 229.291 259.807 229.275 259.836L229.243 259.892C229.218 259.937 229.196 259.981 229.177 260.021C229.165 260.045 229.155 260.068 229.147 260.088L229.137 260.11L229.181 260.164L229.255 260.254L229.335 260.354L229.422 260.462L229.564 260.643L229.667 260.774L229.834 260.989L229.953 261.143L230.079 261.306L230.349 261.658L230.567 261.946L230.881 262.36L231.308 262.926L231.582 263.291L231.969 263.808L232.486 264.501L233.155 265.4L233.877 266.373L234.517 267.239L235.193 268.154L236.197 269.516L237.111 270.759L238.239 272.293L239.782 274.399L241.379 276.581L243.981 280.142L251.602 290.594C251.845 290.925 251.774 291.39 251.442 291.633C251.111 291.876 250.646 291.805 250.403 291.473Z" fill="#1B3C87"/>
<path fill-rule="evenodd" clip-rule="evenodd" d="M210.823 191.42C229.314 178.733 273.942 222.307 273.831 235.296C273.719 248.286 234.039 271.888 227.43 268.48C220.145 264.726 182.451 210.877 210.823 191.42Z" fill="#46DBC9"/>
<path d="M208.662 188.441C213.272 185.279 219.556 185.285 227.003 188.035C233.527 190.444 240.819 194.929 248.032 200.79C254.651 206.168 260.877 212.458 265.479 218.358C270.183 224.389 272.862 229.572 272.833 232.943C272.804 236.261 270.47 240.223 266.257 244.598C262.544 248.453 257.443 252.534 251.735 256.299C250.927 256.832 250.114 257.353 249.3 257.862L248.974 258.065C248.376 258.436 247.778 258.799 247.181 259.155L246.855 259.348C245.987 259.861 245.121 260.357 244.262 260.833L243.941 261.01C241.157 262.542 238.455 263.863 235.997 264.886C230.93 266.995 227.211 267.741 225.347 266.781C222.944 265.541 218.095 259.852 213.392 252.655C213.167 252.311 213.264 251.85 213.607 251.625C213.951 251.401 214.412 251.497 214.637 251.841C219.2 258.824 223.934 264.378 226.029 265.458C227.345 266.137 230.773 265.45 235.425 263.513C237.28 262.741 239.28 261.794 241.352 260.711L241.663 260.548C241.819 260.466 241.975 260.383 242.132 260.299L242.446 260.131C242.603 260.046 242.76 259.961 242.918 259.875L243.234 259.702L243.551 259.527C243.921 259.321 244.292 259.112 244.664 258.9L244.984 258.717C245.197 258.594 245.41 258.471 245.624 258.346L245.944 258.158C246.907 257.592 247.873 257.004 248.836 256.398L249.157 256.195C249.264 256.127 249.371 256.059 249.478 255.991L249.798 255.786L250.118 255.579L250.437 255.371C250.597 255.267 250.757 255.162 250.916 255.057C263.026 247.069 271.297 238.48 271.345 232.93C271.398 226.804 260.512 212.847 247.094 201.944C239.998 196.178 232.84 191.776 226.487 189.431C219.449 186.832 213.646 186.826 209.503 189.668C204.724 192.945 201.708 197.334 200.307 202.721C199.031 207.629 199.109 213.323 200.41 219.627C200.493 220.029 200.234 220.422 199.832 220.505C199.43 220.588 199.036 220.33 198.953 219.927C197.609 213.416 197.528 207.497 198.867 202.347C200.357 196.618 203.583 191.924 208.662 188.441Z" fill="#1B3C87"/>
<path opacity="0.15" d="M180.701 80.8855C115.9 80.8855 63.3694 133.417 63.3694 198.217C63.3694 263.017 115.9 315.548 180.701 315.548C245.502 315.548 298.032 263.018 298.032 198.217C298.032 133.416 245.502 80.8855 180.701 80.8855ZM180.701 82.373C244.68 82.373 296.545 134.237 296.545 198.217C296.545 262.197 244.68 314.061 180.701 314.061C116.722 314.061 64.8569 262.196 64.8569 198.217C64.8569 134.238 116.722 82.373 180.701 82.373Z" fill="white"/>
<path fill-rule="evenodd" clip-rule="evenodd" d="M280.918 217.621C281.033 214.272 287.56 212.913 295.498 214.586C303.435 216.259 309.778 220.33 309.664 223.678C309.55 227.027 303.021 228.386 295.083 226.713C287.146 225.04 280.801 220.97 280.918 217.621Z" fill="white" fill-opacity="0.9"/>
<path fill-rule="evenodd" clip-rule="evenodd" d="M283.272 204.808C283.387 201.46 289.914 200.1 297.852 201.773C305.79 203.446 312.133 207.517 312.018 210.866C311.903 214.214 305.375 215.574 297.437 213.901C289.5 212.228 283.162 208.157 283.272 204.808Z" fill="white" fill-opacity="0.9"/>
<path fill-rule="evenodd" clip-rule="evenodd" d="M282.968 191.567C283.083 188.218 289.61 186.859 297.549 188.531C305.487 190.203 311.828 194.275 311.714 197.624C311.599 200.973 305.071 202.332 297.133 200.659C289.196 198.987 282.853 194.916 282.968 191.567Z" fill="white" fill-opacity="0.9"/>
<path d="M286.095 185.976C288.884 185.46 292.496 185.603 296.303 186.405C304.563 188.145 311.189 192.399 311.058 196.25C310.964 198.992 307.719 200.571 302.87 200.708C302.46 200.719 302.118 200.396 302.106 199.985C302.094 199.575 302.418 199.233 302.829 199.221C306.983 199.104 309.514 197.872 309.571 196.2C309.615 194.9 308.29 193.243 305.85 191.676C303.29 190.033 299.775 188.656 295.996 187.86C292.368 187.096 288.948 186.961 286.366 187.438C285.962 187.513 285.574 187.246 285.499 186.842C285.425 186.438 285.692 186.05 286.095 185.976Z" fill="#1B3C87"/>
<path d="M283.979 199.924C286.832 198.689 291.529 198.576 296.607 199.646C304.867 201.387 311.494 205.641 311.362 209.492C311.261 212.443 307.515 214.04 302.067 213.958C301.656 213.952 301.329 213.614 301.335 213.203C301.341 212.793 301.679 212.465 302.09 212.471C306.817 212.542 309.813 211.265 309.875 209.441C309.92 208.142 308.595 206.485 306.154 204.918C303.594 203.275 300.079 201.898 296.3 201.102C291.497 200.089 287.097 200.195 284.57 201.289C284.193 201.453 283.755 201.279 283.592 200.902C283.429 200.525 283.602 200.088 283.979 199.924Z" fill="#1B3C87"/>
<path d="M285.845 211.797C288.323 211.6 291.227 211.823 294.249 212.459C302.51 214.2 309.136 218.453 309.004 222.305C308.917 224.849 306.112 226.396 301.807 226.714C301.397 226.745 301.04 226.437 301.01 226.028C300.98 225.618 301.287 225.261 301.697 225.231C305.335 224.962 307.465 223.787 307.518 222.254C307.562 220.955 306.237 219.297 303.796 217.731C301.237 216.088 297.722 214.711 293.943 213.915C291.055 213.306 288.292 213.094 285.963 213.28C285.554 213.312 285.195 213.007 285.163 212.597C285.13 212.188 285.436 211.829 285.845 211.797Z" fill="#1B3C87"/>
<path fill-rule="evenodd" clip-rule="evenodd" d="M48.9808 196.428C49.0955 193.079 55.6237 191.72 63.5613 193.393C71.4989 195.066 77.841 199.136 77.7263 202.486C77.6117 205.836 71.0842 207.193 63.1458 205.521C55.2074 203.848 48.8661 199.777 48.9808 196.428Z" fill="white" fill-opacity="0.9"/>
<path fill-rule="evenodd" clip-rule="evenodd" d="M51.3375 183.615C51.4521 180.266 57.9804 178.907 65.918 180.58C73.8556 182.253 80.1977 186.324 80.083 189.675C79.9684 193.027 73.4409 194.383 65.5033 192.71C57.5657 191.037 51.2228 186.965 51.3375 183.615Z" fill="white" fill-opacity="0.9"/>
<path fill-rule="evenodd" clip-rule="evenodd" d="M51.0334 170.373C51.148 167.024 57.6763 165.665 65.6139 167.338C73.5515 169.011 79.8936 173.082 79.7789 176.431C79.6643 179.78 73.1368 181.138 65.1992 179.466C57.2616 177.793 50.9195 173.72 51.0334 170.373Z" fill="white" fill-opacity="0.9"/>
<path d="M48.0722 168.471C48.2105 164.431 55.2033 162.975 63.5491 164.734C64.7934 164.996 66.0125 165.319 67.1847 165.693L67.4109 165.766C69.4796 166.442 71.3958 167.279 73.0369 168.224C73.3928 168.429 73.5152 168.884 73.3102 169.24C73.1052 169.596 72.6504 169.718 72.2945 169.513C69.8089 168.082 66.6263 166.901 63.2426 166.19C62.6395 166.062 62.0422 165.953 61.4537 165.86L61.2334 165.827C58.2283 165.376 55.4619 165.379 53.3237 165.824C50.9028 166.328 49.6 167.319 49.5588 168.522C49.5157 169.784 50.7655 171.388 53.0859 172.919C53.4287 173.145 53.5232 173.607 53.297 173.949C53.0708 174.292 52.6095 174.387 52.2666 174.161C49.5579 172.373 48.0069 170.383 48.0722 168.471Z" fill="#1B3C87"/>
<path d="M48.3762 181.713C48.5146 177.673 55.507 176.217 63.8535 177.975C67.1456 178.669 70.2602 179.788 72.7944 181.164C73.1554 181.36 73.2892 181.811 73.0932 182.172C72.8972 182.533 72.4457 182.667 72.0847 182.471C69.6805 181.166 66.7016 180.096 63.5468 179.43C59.7772 178.636 56.2353 178.523 53.6278 179.066C51.2068 179.57 49.904 180.561 49.8628 181.764C49.8019 183.541 52.272 185.902 56.3491 187.789C56.7219 187.962 56.8842 188.404 56.7116 188.777C56.5391 189.15 56.097 189.312 55.7243 189.139C51.153 187.023 48.288 184.284 48.3762 181.713Z" fill="#1B3C87"/>
<path d="M46.0196 194.525C46.158 190.485 53.1511 189.029 61.4969 190.787C66.123 191.763 70.3691 193.573 73.1168 195.699C73.4416 195.951 73.5011 196.418 73.2497 196.743C72.9983 197.067 72.5311 197.127 72.2063 196.876C69.6498 194.897 65.6092 193.175 61.1901 192.243C57.4207 191.448 53.8788 191.335 51.2712 191.878C48.8503 192.382 47.5474 193.373 47.5062 194.576C47.4221 197.033 52.0355 200.387 58.4535 202.257C58.8479 202.372 59.0745 202.785 58.9596 203.179C58.8447 203.573 58.4319 203.8 58.0375 203.685C51.0196 201.641 45.9034 197.921 46.0196 194.525Z" fill="#1B3C87"/>
<path d="M186.71 154.765L186.854 154.723L186.995 154.682C187.019 154.676 187.042 154.669 187.066 154.663L187.204 154.624L187.341 154.588L187.476 154.552L187.608 154.518C187.63 154.513 187.652 154.507 187.673 154.502L187.803 154.47L187.93 154.44L188.055 154.411L188.178 154.384C188.219 154.375 188.259 154.366 188.299 154.358L188.418 154.334L188.534 154.311C188.708 154.278 188.874 154.25 189.033 154.227L189.138 154.213C189.484 154.167 189.793 154.148 190.066 154.155C190.578 154.169 190.993 154.274 191.311 154.516C191.712 154.822 191.875 155.289 191.794 155.802L191.386 158.089L191.287 158.656L191.281 158.692C191.028 160.158 190.799 161.597 190.582 163.122C189.915 167.816 189.463 172.625 189.303 177.61C189.101 183.873 189.377 190.025 190.224 195.977C190.262 196.245 190.152 196.513 189.936 196.676C188.404 197.831 183.914 198.782 178.801 199.118C178.391 199.145 178.037 198.834 178.01 198.424C177.983 198.014 178.294 197.66 178.703 197.634C179.143 197.605 179.577 197.571 180.006 197.533L180.262 197.509C180.517 197.485 180.77 197.46 181.021 197.433L181.27 197.405L181.517 197.377C181.681 197.358 181.844 197.338 182.005 197.317L182.246 197.286C182.406 197.265 182.564 197.243 182.721 197.221L182.954 197.187C183.148 197.158 183.338 197.129 183.526 197.099L183.75 197.062C183.898 197.037 184.045 197.012 184.189 196.987L184.404 196.948L184.615 196.908C184.685 196.895 184.754 196.882 184.823 196.868L185.028 196.827C186.619 196.505 187.889 196.126 188.638 195.736L188.685 195.711L188.654 195.48C187.881 189.736 187.627 183.822 187.808 177.809L187.816 177.562C187.979 172.519 188.435 167.657 189.109 162.913C189.316 161.463 189.533 160.09 189.77 158.7L189.876 158.088L190.307 155.67L190.301 155.669C190.236 155.656 190.155 155.647 190.059 155.643L190.027 155.642C189.965 155.64 189.9 155.641 189.831 155.643L189.761 155.646C189.571 155.656 189.354 155.681 189.113 155.719L189.021 155.735L188.927 155.751L188.831 155.769L188.733 155.788C188.716 155.791 188.699 155.794 188.682 155.798L188.581 155.819C188.564 155.823 188.546 155.826 188.529 155.83L188.424 155.853L188.317 155.877L188.207 155.903L188.096 155.93L187.982 155.958L187.866 155.988L187.749 156.018L187.629 156.051L187.507 156.084L187.383 156.119L187.257 156.155L187.129 156.192L186.977 156.237L186.822 156.284C186.796 156.292 186.77 156.3 186.744 156.308L186.586 156.357L186.425 156.408L186.263 156.461L186.098 156.515C186.071 156.524 186.043 156.533 186.015 156.543L185.847 156.599L185.677 156.657L185.505 156.717L185.332 156.778L185.156 156.84L184.978 156.904L184.799 156.969C184.769 156.98 184.739 156.991 184.708 157.002L184.435 157.104C184.404 157.115 184.373 157.127 184.343 157.138L184.157 157.209L183.97 157.28C183.938 157.292 183.907 157.304 183.876 157.316L183.686 157.39C183.654 157.402 183.622 157.415 183.591 157.427L183.399 157.503L183.205 157.579L183.01 157.658C182.978 157.671 182.945 157.684 182.912 157.697L182.716 157.777L182.517 157.858L182.318 157.94L182.016 158.066L181.711 158.195L181.404 158.326L181.198 158.414L180.991 158.504L180.783 158.595L180.574 158.687L180.364 158.78C180.329 158.796 180.294 158.811 180.259 158.827L180.047 158.922L179.835 159.017L179.622 159.114L179.409 159.211L179.087 159.359L178.872 159.459L178.656 159.56L178.439 159.662L178.222 159.764L178.005 159.868L177.787 159.972L177.568 160.077L177.338 160.189L177.096 160.307L176.854 160.425L176.614 160.544C176.574 160.564 176.534 160.584 176.494 160.603L176.254 160.723L176.015 160.843L175.777 160.963L175.54 161.084L175.303 161.205L175.068 161.326L174.834 161.448L174.6 161.569L174.368 161.691L174.137 161.813L173.908 161.936L173.679 162.058L173.452 162.181L173.227 162.303L173.002 162.426L172.779 162.548L172.558 162.671L172.339 162.793L172.121 162.916L171.904 163.038C171.868 163.059 171.832 163.079 171.797 163.099L171.583 163.221L171.371 163.343C171.336 163.364 171.301 163.384 171.266 163.404L171.057 163.526L170.85 163.647L170.645 163.769L170.442 163.89L170.241 164.01L170.042 164.13C170.009 164.15 169.976 164.17 169.943 164.19L169.748 164.31C169.683 164.35 169.618 164.39 169.554 164.429L169.363 164.548L169.175 164.666L168.989 164.784C168.927 164.823 168.866 164.862 168.805 164.901L168.624 165.018C168.594 165.038 168.564 165.057 168.534 165.076L168.357 165.192C168.328 165.212 168.299 165.231 168.269 165.25L168.096 165.365C168.068 165.384 168.039 165.403 168.011 165.422L167.842 165.536L167.687 165.641L167.479 165.785L167.342 165.88L167.208 165.974C167.186 165.99 167.164 166.005 167.142 166.021L167.012 166.114L166.884 166.207C166.863 166.222 166.842 166.237 166.821 166.253L166.696 166.344C166.676 166.359 166.655 166.374 166.635 166.389L166.514 166.48C166.494 166.495 166.474 166.51 166.454 166.525L166.337 166.614L166.222 166.702L166.11 166.789L166 166.876L165.892 166.962C165.875 166.976 165.857 166.99 165.84 167.005L165.736 167.089L165.635 167.173C165.618 167.187 165.602 167.201 165.585 167.214L165.488 167.297L165.393 167.379L165.301 167.459C165.104 167.633 164.926 167.8 164.767 167.961L164.694 168.035L164.624 168.109C164.349 168.4 164.148 168.66 164.026 168.878C163.968 168.983 163.93 169.073 163.913 169.144C163.902 169.188 163.9 169.215 163.902 169.226C164.156 170.64 164.309 173.569 164.379 177.412L164.388 177.954C164.39 178.045 164.391 178.137 164.393 178.229L164.4 178.788C164.403 178.976 164.405 179.166 164.407 179.358L164.413 179.939C164.416 180.329 164.419 180.727 164.421 181.13L164.423 181.741C164.425 182.355 164.426 182.984 164.425 183.624L164.424 184.269L164.421 184.921C164.421 185.03 164.42 185.14 164.42 185.25L164.416 185.913L164.411 186.582L164.406 187.258C164.405 187.371 164.404 187.485 164.403 187.599L164.396 188.283L164.388 188.974L164.379 189.669L164.37 190.37L164.359 191.074C164.357 191.192 164.355 191.31 164.354 191.428L164.342 192.139L164.329 192.853L164.316 193.57L164.302 194.29L164.287 195.012L164.271 195.736C164.268 195.857 164.266 195.978 164.263 196.099C164.253 196.51 163.913 196.835 163.502 196.826C163.092 196.816 162.766 196.476 162.776 196.065L162.792 195.349L162.807 194.635L162.821 193.923C162.824 193.804 162.826 193.686 162.828 193.567L162.841 192.858L162.854 192.152L162.865 191.449C162.867 191.332 162.869 191.215 162.871 191.099L162.881 190.401L162.891 189.707L162.899 189.018C162.901 188.904 162.902 188.789 162.903 188.675L162.911 187.994C162.912 187.881 162.913 187.768 162.914 187.655L162.92 186.981L162.925 186.314C162.927 186.093 162.928 185.872 162.929 185.653L162.933 184.999L162.935 184.352C162.935 184.244 162.936 184.137 162.936 184.031L162.937 183.395L162.937 182.767L162.936 182.148C162.936 182.046 162.935 181.944 162.935 181.842L162.933 181.236L162.929 180.64C162.929 180.541 162.928 180.443 162.927 180.345L162.923 179.764C162.921 179.572 162.919 179.381 162.917 179.193L162.91 178.632L162.902 178.083L162.893 177.545C162.827 173.734 162.68 170.838 162.438 169.489C162.223 168.29 163.442 166.877 165.863 165.108L166.03 164.986C166.199 164.865 166.374 164.741 166.554 164.616L166.735 164.49C166.797 164.448 166.858 164.406 166.921 164.363L167.095 164.245L167.272 164.127C167.331 164.087 167.391 164.048 167.451 164.008L167.634 163.888L167.819 163.768L168.006 163.647C168.101 163.586 168.196 163.525 168.293 163.464L168.487 163.342C168.552 163.301 168.617 163.26 168.683 163.219L168.882 163.096L169.083 162.973L169.286 162.849C169.32 162.828 169.355 162.807 169.389 162.787L169.595 162.662L169.804 162.538L170.015 162.413L170.228 162.287C170.264 162.266 170.3 162.246 170.336 162.225L170.552 162.099L170.77 161.973C170.842 161.931 170.916 161.889 170.989 161.847L171.211 161.721L171.434 161.595L171.659 161.469L171.886 161.343L172.114 161.216C172.152 161.195 172.191 161.174 172.229 161.153L172.46 161.027C172.498 161.006 172.537 160.985 172.575 160.964L172.808 160.838L173.042 160.712L173.278 160.586L173.515 160.46L173.753 160.334L173.992 160.209L174.232 160.084L174.474 159.959L174.716 159.834L174.959 159.71L175.204 159.586L175.449 159.463C175.49 159.442 175.531 159.421 175.572 159.401L175.818 159.278L176.065 159.156L176.313 159.033L176.562 158.912C176.603 158.892 176.645 158.872 176.686 158.851L176.922 158.737L177.145 158.63L177.367 158.524L177.588 158.419L177.92 158.262L178.25 158.108L178.469 158.006L178.688 157.905L179.015 157.756L179.232 157.657L179.449 157.56L179.772 157.416L179.986 157.321L180.199 157.227L180.412 157.134L180.623 157.043L180.834 156.952L181.043 156.863L181.251 156.774L181.458 156.687L181.664 156.601L181.869 156.516C181.903 156.502 181.937 156.488 181.971 156.475L182.274 156.351L182.475 156.27L182.674 156.19L182.872 156.111L183.069 156.034C183.102 156.021 183.134 156.009 183.167 155.996L183.361 155.921L183.554 155.847L183.745 155.774L184.028 155.668L184.215 155.599L184.4 155.531L184.584 155.465C184.614 155.454 184.644 155.443 184.675 155.432L184.855 155.368L185.034 155.306L185.211 155.245L185.386 155.185L185.559 155.127L185.73 155.07L185.898 155.015C185.926 155.006 185.954 154.997 185.982 154.989L186.148 154.936C186.202 154.919 186.257 154.902 186.311 154.885L186.472 154.836L186.631 154.788C186.657 154.78 186.684 154.772 186.71 154.765Z" fill="#1B3C87"/>
<path fill-rule="evenodd" clip-rule="evenodd" d="M134.449 133.29C136.157 112.331 151.887 96.4864 169.581 97.8999C187.215 99.3086 200.146 117.325 198.543 138.193C199.739 139.616 200.459 141.453 200.459 143.457C200.459 146.766 198.497 149.617 195.673 150.909C194.776 153.215 193.696 155.398 192.457 157.434C192.923 157.525 193.148 157.772 193.073 158.202C193.031 158.44 192.98 158.72 192.923 159.037L192.923 159.037C191.949 164.431 188.983 180.856 191.504 198.578C188.425 200.905 170.473 202.586 165.535 198.578C165.687 191.951 165.839 179.554 165.415 173.89C164.745 173.886 164.071 173.857 163.394 173.803C145.7 172.391 132.739 154.249 134.449 133.29Z" fill="white" fill-opacity="0.9"/>
<path d="M140.661 159.704C140.982 159.448 141.45 159.501 141.706 159.823C146.913 166.363 154.007 170.371 161.82 170.995C168.164 171.502 174.412 169.737 179.893 165.998C180.232 165.767 180.695 165.854 180.926 166.194C181.158 166.533 181.07 166.996 180.731 167.227C174.976 171.153 168.393 173.013 161.702 172.478C153.464 171.82 145.998 167.602 140.542 160.749C140.286 160.428 140.34 159.96 140.661 159.704Z" fill="#1B3C87"/>
<path d="M132.075 131.167C133.815 109.824 149.875 93.6474 168.009 95.096C186.145 96.5447 199.376 115.063 197.636 136.407C197.124 142.69 195.359 148.657 192.515 153.92C192.32 154.281 191.869 154.416 191.507 154.22C191.146 154.025 191.011 153.574 191.207 153.213C193.953 148.132 195.658 142.365 196.154 136.286C197.831 115.711 185.145 97.9571 167.891 96.5788C150.635 95.2004 135.235 110.713 133.558 131.288C133.133 136.498 133.623 141.629 134.965 146.434C135.075 146.83 134.844 147.24 134.449 147.35C134.053 147.461 133.643 147.23 133.532 146.834C132.143 141.86 131.636 136.552 132.075 131.167Z" fill="#1B3C87"/>
<path fill-rule="evenodd" clip-rule="evenodd" d="M165.556 125.635C165.8 123.37 166.83 121.623 167.855 121.733C168.881 121.844 169.513 123.771 169.268 126.036C169.023 128.3 167.993 130.048 166.969 129.936C165.944 129.825 165.311 127.899 165.556 125.635Z" fill="#1B3C87"/>
<path d="M150.732 127.365C150.825 126.965 151.225 126.716 151.625 126.809C152.025 126.902 152.274 127.301 152.181 127.701C151.299 131.504 148.897 135.593 146.157 137.756C145.835 138.011 145.367 137.956 145.113 137.634C144.858 137.311 144.913 136.843 145.235 136.589C147.695 134.647 149.923 130.854 150.732 127.365Z" fill="#1B3C87"/>
<path d="M161.757 144.885C159.289 144.885 157.288 146.886 157.288 149.354C157.288 151.822 159.289 153.823 161.757 153.823C164.225 153.823 166.226 151.822 166.226 149.354C166.226 146.886 164.225 144.885 161.757 144.885ZM161.757 146.372C163.403 146.372 164.738 147.707 164.738 149.354C164.738 151.001 163.403 152.336 161.757 152.336C160.11 152.335 158.776 151.001 158.775 149.354C158.775 147.707 160.11 146.372 161.757 146.372Z" fill="#1B3C87"/>
<path fill-rule="evenodd" clip-rule="evenodd" d="M189.185 139.007C186.936 138.846 180.479 129.634 187.103 123.301C183.853 120.135 164.734 105.824 141.765 114.699C138.781 111.665 130.635 99.4624 137.666 94.2014C144.697 88.9404 147.634 95.3024 148.545 97.8311C146.421 91.155 147.617 73.1973 165.497 72.9981C183.377 72.8001 202.601 125.043 201.825 134.418C201.048 143.793 201.008 145.06 189.185 139.007Z" fill="#EDCA55"/>
<path d="M188.086 96.6236C188.456 96.4451 188.901 96.6004 189.079 96.9703C195.527 110.336 200.419 125.879 199.996 130.992L199.87 132.485L199.831 132.926L199.8 133.265L199.775 133.525L199.751 133.776L199.726 134.017L199.701 134.249L199.67 134.527L199.651 134.687L199.639 134.792L199.613 134.995L199.587 135.191L199.568 135.333L199.554 135.426L199.534 135.562L199.514 135.694L199.493 135.823L199.479 135.907L199.458 136.03L199.429 136.19L199.406 136.306L199.383 136.419L199.36 136.53L199.336 136.638L199.312 136.744L199.287 136.848L199.27 136.916L199.252 136.983L199.226 137.082L199.208 137.147L199.19 137.211L199.171 137.275L199.152 137.338C199.108 137.483 199.06 137.622 199.01 137.756L198.975 137.843C198.554 138.902 197.923 139.565 196.987 139.834C195.388 140.294 193.168 139.603 188.382 137.242L188.052 137.078C187.996 137.05 187.94 137.022 187.884 136.994L187.541 136.823C187.483 136.794 187.425 136.765 187.367 136.735L187.012 136.556C186.952 136.525 186.892 136.495 186.831 136.464L186.463 136.277L186.389 136.239L186.364 136.234C184.768 135.924 182.618 133.283 181.576 130.316L181.543 130.222C180.925 128.419 180.72 126.568 181.014 124.795C181.311 122.999 182.11 121.336 183.44 119.869L183.465 119.842L183.353 119.744L183.252 119.658C183.235 119.643 183.218 119.629 183.201 119.614L183.096 119.526L182.989 119.436L182.879 119.345L182.765 119.253C182.746 119.238 182.727 119.222 182.708 119.207L182.591 119.113L182.471 119.018L182.349 118.921L182.224 118.824L182.096 118.726L181.967 118.627L181.835 118.527C181.813 118.511 181.791 118.494 181.768 118.477L181.633 118.376L181.496 118.275L181.356 118.173L181.215 118.07L181.071 117.967L180.926 117.863L180.779 117.759L180.63 117.655L180.412 117.504C178.402 116.121 176.12 114.793 173.648 113.619C167.197 110.557 160.217 108.875 152.986 109.116C152.576 109.129 152.232 108.807 152.218 108.397C152.205 107.986 152.526 107.643 152.937 107.629C160.422 107.38 167.633 109.117 174.286 112.275C176.831 113.484 179.182 114.852 181.255 116.279L181.397 116.377L181.538 116.475L181.677 116.573L181.815 116.67L181.951 116.767L182.086 116.864L182.285 117.009C182.307 117.025 182.329 117.041 182.351 117.057L182.545 117.201L182.673 117.296L182.798 117.391L182.922 117.485L183.044 117.578L183.163 117.671L183.281 117.763L183.454 117.899L183.567 117.989L183.678 118.078L183.786 118.166L183.945 118.297L184.048 118.383L184.148 118.467L184.247 118.551L184.342 118.633L184.436 118.714L184.526 118.794L184.614 118.873C184.629 118.886 184.643 118.899 184.658 118.912L184.742 118.988L184.823 119.064C184.837 119.076 184.85 119.088 184.863 119.101L184.941 119.174L185.015 119.245C185.028 119.257 185.04 119.269 185.052 119.281C185.353 119.574 185.351 120.06 185.047 120.351C182.319 122.958 181.768 126.289 182.95 129.74C183.423 131.118 184.157 132.419 184.982 133.413C185.349 133.855 185.718 134.214 186.05 134.459C186.078 134.48 186.105 134.5 186.132 134.518L186.185 134.554C186.193 134.56 186.202 134.565 186.21 134.571L186.261 134.603C186.433 134.709 186.571 134.766 186.656 134.776L186.668 134.777C186.768 134.784 186.865 134.811 186.954 134.857L187.3 135.033C187.357 135.062 187.413 135.091 187.469 135.12L187.803 135.289L188.13 135.453L188.448 135.613L188.76 135.768L189.064 135.918L189.36 136.063C189.409 136.087 189.457 136.111 189.506 136.134L189.791 136.273L190.07 136.406C190.437 136.582 190.786 136.745 191.117 136.896L191.362 137.008C194.183 138.281 195.688 138.66 196.576 138.405C197.299 138.197 197.715 137.462 198.03 135.503L198.057 135.335C198.061 135.306 198.065 135.277 198.07 135.248L198.095 135.071C198.108 134.981 198.121 134.888 198.133 134.793L198.158 134.601C198.162 134.568 198.166 134.535 198.17 134.502L198.195 134.3C198.203 134.231 198.211 134.161 198.219 134.091L198.243 133.876L198.266 133.654C198.278 133.541 198.289 133.426 198.301 133.308L198.324 133.07C198.328 133.029 198.331 132.988 198.335 132.947L198.358 132.698C198.362 132.656 198.366 132.614 198.369 132.571L198.513 130.869C198.61 129.697 198.364 127.753 197.819 125.265L197.757 124.986C197.715 124.799 197.672 124.609 197.627 124.416L197.557 124.124L197.486 123.828C197.268 122.934 197.017 121.984 196.736 120.987L196.641 120.653L196.544 120.316C196.315 119.524 196.067 118.705 195.802 117.863C193.78 111.439 190.937 104.246 187.739 97.6166C187.561 97.2467 187.716 96.8021 188.086 96.6236Z" fill="#1B3C87"/>
<path d="M162.919 68.7672C167.428 68.7171 172.122 71.7266 176.877 77.2876C177.144 77.5998 177.107 78.0692 176.795 78.3362C176.483 78.6031 176.013 78.5665 175.746 78.2543C171.249 72.9952 166.906 70.2105 162.935 70.2546C158.833 70.3004 155.491 71.3054 152.863 73.1455C150.541 74.7717 148.802 77.0349 147.634 79.7889C146.609 82.2048 146.054 84.9386 145.956 87.7015C145.871 90.1213 146.149 92.4378 146.683 94.1187C146.979 95.0468 145.603 95.5119 145.275 94.5951C144.597 92.7054 143.668 91.13 142.396 90.2106C140.655 88.9517 138.454 89.1307 135.542 91.3099C132.715 93.4253 132.385 96.9935 134.086 101.537C134.772 103.37 135.766 105.27 136.93 107.064L137.022 107.204L137.113 107.343L137.205 107.481L137.297 107.617L137.39 107.752C137.405 107.775 137.421 107.797 137.436 107.82L137.529 107.953L137.621 108.085L137.713 108.216C137.729 108.237 137.744 108.259 137.76 108.28L137.852 108.408L137.944 108.535L138.036 108.66L138.127 108.783L138.218 108.904C138.233 108.924 138.249 108.944 138.264 108.964L138.354 109.082L138.444 109.199C138.459 109.218 138.474 109.237 138.489 109.256L138.578 109.369L138.666 109.48C138.681 109.498 138.695 109.517 138.71 109.535L138.797 109.642L138.883 109.747L138.969 109.85L139.053 109.95L139.137 110.048C139.178 110.096 139.219 110.143 139.26 110.189L139.341 110.28C139.381 110.325 139.42 110.369 139.46 110.411L139.537 110.495L139.613 110.576C139.626 110.589 139.638 110.602 139.651 110.615L139.725 110.691C140.013 110.984 140.009 111.455 139.716 111.743C139.423 112.031 138.952 112.027 138.664 111.734C136.646 109.681 134.051 105.685 132.693 102.059C131.826 99.742 131.432 97.5743 131.61 95.6415C131.819 93.3776 132.812 91.495 134.651 90.1189C138.053 87.5731 140.96 87.3368 143.268 89.0051C143.699 89.3167 144.097 89.6871 144.465 90.1093L144.503 90.1534L144.501 90.1155C144.454 89.3478 144.441 88.5537 144.466 87.7495L144.47 87.6489C144.574 84.7123 145.165 81.8004 146.265 79.2081C147.537 76.2083 149.447 73.7214 152.01 71.9271C154.892 69.9092 158.526 68.8162 162.919 68.7672Z" fill="#7783DB"/>
<path d="M187.792 134.231C191.605 132.477 196.125 133.613 198.655 136.963C201.185 140.312 201.043 144.971 198.312 148.159C195.582 151.347 191.001 152.206 187.302 150.221C186.94 150.027 186.804 149.576 186.998 149.214C187.192 148.852 187.643 148.716 188.005 148.911C191.088 150.564 194.907 149.849 197.183 147.192C199.458 144.534 199.577 140.651 197.468 137.859C195.359 135.067 191.592 134.12 188.413 135.582C188.04 135.754 187.598 135.59 187.427 135.217C187.255 134.844 187.418 134.402 187.792 134.231Z" fill="#1B3C87"/>
</svg>
