<?xml version="1.0" encoding="utf-8"?>
<!-- Generator: Adobe Adobe Illustrator 24.2.0, SVG Export Plug-In . SVG Version: 6.00 Build 0)  -->
<svg version="1.1" xmlns="http://www.w3.org/2000/svg" xmlns:xlink="http://www.w3.org/1999/xlink" x="0px" y="0px" width="1200px"
	 height="1200px" viewBox="0 0 1200 1200" style="enable-background:new 0 0 1200 1200;" xml:space="preserve">
<style type="text/css">
	.st0{clip-path:url(#SVGID_2_);fill:url(#SVGID_3_);}
	.st1{clip-path:url(#SVGID_5_);fill:url(#SVGID_6_);}
	.st2{clip-path:url(#SVGID_8_);fill:url(#SVGID_9_);}
	.st3{clip-path:url(#SVGID_11_);fill:url(#SVGID_12_);}
	.st4{clip-path:url(#SVGID_14_);fill:url(#SVGID_15_);}
	.st5{clip-path:url(#SVGID_17_);fill:url(#SVGID_18_);}
</style>
<g id="Layer_2">
	<g>
		<g>
			<g>
				<defs>
					<polygon id="SVGID_1_" points="296.09,80.72 437.84,222.48 437.84,680.54 292.58,680.54 292.58,80.72 					"/>
				</defs>
				<clipPath id="SVGID_2_">
					<use xlink:href="#SVGID_1_"  style="overflow:visible;"/>
				</clipPath>

					<linearGradient id="SVGID_3_" gradientUnits="userSpaceOnUse" x1="405.2285" y1="222.897" x2="981.5163" y2="222.897" gradientTransform="matrix(-0.5 -0.866 0.866 -0.5 515.9705 1103.3516)">
					<stop  offset="0" style="stop-color:#fff"/>
					<stop  offset="1" style="stop-color:#fff"/>
				</linearGradient>
				<path class="st0" d="M437.84,123.92v556.62H292.58V123.92c0-23.85,19.34-43.19,43.19-43.19l58.88,0
					C418.51,80.72,437.84,100.06,437.84,123.92z"/>
			</g>
			<g>
				<defs>
					<polygon id="SVGID_4_" points="296.09,80.72 437.84,222.48 895.91,222.48 895.91,77.21 296.09,77.21 					"/>
				</defs>
				<clipPath id="SVGID_5_">
					<use xlink:href="#SVGID_4_"  style="overflow:visible;"/>
				</clipPath>

					<linearGradient id="SVGID_6_" gradientUnits="userSpaceOnUse" x1="405.2285" y1="222.897" x2="981.5163" y2="222.897" gradientTransform="matrix(-0.866 -0.5 -0.5 0.866 1318.7192 300.6028)">
					<stop  offset="0" style="stop-color:#fff"/>
					<stop  offset="1" style="stop-color:#fff"/>
				</linearGradient>
				<path class="st1" d="M339.28,222.48h556.62V77.21H339.28c-23.85,0-43.19,19.34-43.19,43.19v58.88
					C296.09,203.14,315.43,222.48,339.28,222.48z"/>
			</g>
		</g>
		<g>
			<g>
				<defs>
					<polygon id="SVGID_7_" points="1190.25,600.91 805.11,704.11 613.96,704.11 613.96,294.2 1190.25,294.2 					"/>
				</defs>
				<clipPath id="SVGID_8_">
					<use xlink:href="#SVGID_7_"  style="overflow:visible;"/>
				</clipPath>

					<linearGradient id="SVGID_9_" gradientUnits="userSpaceOnUse" x1="405.2284" y1="222.8972" x2="981.5161" y2="222.8972" gradientTransform="matrix(1 0 0 1 208.7317 276.2578)">
					<stop  offset="0" style="stop-color:#fff"/>
					<stop  offset="1" style="stop-color:#fff"/>
				</linearGradient>
				<path class="st2" d="M1096.01,698.32L613.96,420l72.63-125.81l482.05,278.31c20.66,11.93,27.74,38.34,15.81,59l-29.44,50.99
					C1143.09,703.17,1116.67,710.24,1096.01,698.32z"/>
			</g>
			<g>
				<defs>
					<polygon id="SVGID_10_" points="1190.25,600.91 805.11,704.11 639.57,799.69 844.53,1154.68 1343.61,866.54 					"/>
				</defs>
				<clipPath id="SVGID_11_">
					<use xlink:href="#SVGID_10_"  style="overflow:visible;"/>
				</clipPath>

					<linearGradient id="SVGID_12_" gradientUnits="userSpaceOnUse" x1="405.2284" y1="222.8972" x2="981.5161" y2="222.8972" gradientTransform="matrix(0.866 -0.5 -0.5 -0.866 502.5581 1372.8325)">
					<stop  offset="0" style="stop-color:#fff"/>
					<stop  offset="1" style="stop-color:#fff"/>
				</linearGradient>
				<path class="st3" d="M1059.93,563.68l-278.31,482.05l125.81,72.63l278.31-482.05c11.93-20.66,4.85-47.07-15.81-59l-50.99-29.44
					C1098.28,535.94,1071.86,543.02,1059.93,563.68z"/>
			</g>
		</g>
		<g>
			<g>
				<defs>
					<polygon id="SVGID_13_" points="306.37,1112.7 416.21,702.79 824.17,702.79 824.17,1112.7 					"/>
				</defs>
				<clipPath id="SVGID_14_">
					<use xlink:href="#SVGID_13_"  style="overflow:visible;"/>
				</clipPath>

					<linearGradient id="SVGID_15_" gradientUnits="userSpaceOnUse" x1="405.2285" y1="222.897" x2="981.5163" y2="222.897" gradientTransform="matrix(-0.5 0.866 -0.866 -0.5 1078.6348 423.7281)">
					<stop  offset="0" style="stop-color:#fff"/>
					<stop  offset="1" style="stop-color:#fff"/>
				</linearGradient>
				<path class="st4" d="M269.48,981.1l482.05-278.31l72.63,125.81l-482.05,278.31c-20.66,11.93-47.07,4.85-59-15.81l-29.44-50.99
					C241.74,1019.45,248.82,993.03,269.48,981.1z"/>
			</g>
			<g>
				<defs>
					<polygon id="SVGID_16_" points="306.37,1112.7 416.21,702.79 62.9,498.81 -142.05,853.81 					"/>
				</defs>
				<clipPath id="SVGID_17_">
					<use xlink:href="#SVGID_16_"  style="overflow:visible;"/>
				</clipPath>

					<linearGradient id="SVGID_18_" gradientUnits="userSpaceOnUse" x1="405.2285" y1="222.897" x2="981.5163" y2="222.897" gradientTransform="matrix(-3.992753e-09 1 1 3.992753e-09 -17.9407 129.9016)">
					<stop  offset="0" style="stop-color:#fff"/>
					<stop  offset="1" style="stop-color:#fff"/>
				</linearGradient>
				<path class="st5" d="M404.12,1017.18L125.81,535.13L0,607.76l278.31,482.05c11.93,20.66,38.34,27.74,59,15.81l50.99-29.44
					C408.97,1064.26,416.05,1037.84,404.12,1017.18z"/>
			</g>
		</g>
	</g>
</g>
<g id="Layer_3">
</g>
</svg>
